<?xml version="1.0" standalone="no"?>
<!DOCTYPE svg PUBLIC "-//W3C//DTD SVG 1.1//EN" "http://www.w3.org/Graphics/SVG/1.1/DTD/svg11.dtd" >
<svg xmlns="http://www.w3.org/2000/svg" xmlns:xlink="http://www.w3.org/1999/xlink" version="1.1">
<metadata></metadata>
<defs>
<font id="cutepunklight" horiz-adv-x="419" >
<font-face units-per-em="2048" ascent="1536" descent="-512" />
<missing-glyph horiz-adv-x="409" />
<glyph unicode="&#xfb01;" horiz-adv-x="405" d="M0.5 -382q-2.5 31 3.5 54q12 59 36.5 127t44.5 110.5t58 119.5q5 501 7 602q2 91 -6 262t-9 207q-70 -19 -108 -23q-11 -1 -15.5 7t0 16.5t15.5 9.5q7 1 108 23q0 5 -1 16t-1 16q0 7 -1 45.5t0 61.5t3 63.5t8.5 67.5t17 56.5t28.5 48t42 26.5q9 3 16 -4t5.5 -16.5 t-10.5 -12.5q-65 -19 -71 -206q-1 -2 -1 -6v-11q-2 -45 -2 -137q70 20 133 28q9 1 13 -6.5t0 -16.5t-13 -11q-27 -2 -133 -27q5 -127 6 -152q6 -88 8 -192.5t2 -179.5t-1 -196.5t-1 -184.5q0 -58 -4 -168q3 -7 0 -10q-8 -200 -6 -299q0 -4 1 -23.5t1 -30.5v-32.5t-2 -35.5 t-5 -32.5t-10 -31t-15.5 -24t-22 -17.5t-29.5 -7q-30 -1 -51 18.5t-28.5 48t-10 59.5zM35 -354q-4 -67 16 -97q27 -34 53 -15t31 54q5 11 4.5 83t-0.5 83q1 34 2 100.5t2 100.5q-32 -61 -51.5 -102t-37.5 -99.5t-19 -107.5zM244 964.5q0 8.5 8 14t16 0.5q62 -36 62 -129 q3 -148 0 -295q-5 -250 -2 -322v-32q-1 -32 -0.5 -51t3 -47.5t9.5 -47t18 -24.5q8 -6 8 -14.5t-8 -14t-16 -0.5q-36 20 -41 117q-8 69 -8 258q1 38 2.5 106.5t2.5 125t1 106.5q0 11 1.5 56t0 72.5t-13 60t-35.5 46.5q-8 6 -8 14.5z" />
<glyph horiz-adv-x="0" />
<glyph horiz-adv-x="682" />
<glyph unicode=" "  horiz-adv-x="409" />
<glyph unicode="&#x09;" horiz-adv-x="409" />
<glyph unicode="&#xa0;" horiz-adv-x="409" />
<glyph unicode="!" horiz-adv-x="129" d="M23 47q3 14 14.5 20.5t23.5 2.5q28 -14 25 -35q0 -15 -16 -23q-3 -10 -15 -10q-22 0 -30 14q-6 9 -2 31zM23 1405q0 15 15 15t15 -15q0 -172 4 -516t4 -516q0 -13 -15 -13t-15 13q-1 115 -4.5 475t-3.5 557zM57 41zM57 41z" />
<glyph unicode="&#x22;" horiz-adv-x="212" d="M20 1511q0 15 16.5 15t16.5 -15q0 -40 1 -62t8.5 -55.5t21.5 -58.5q5 -9 -0.5 -16.5t-14 -7.5t-14.5 8q-16 28 -24.5 64t-9.5 60t-1 68zM113 1513q-3 15 12.5 19.5t17.5 -10.5q4 -24 10.5 -90.5t16.5 -100.5q3 -9 -3.5 -15t-15.5 -4t-12 11q-10 34 -15.5 100t-10.5 90z " />
<glyph unicode="%" horiz-adv-x="645" d="M23 27q5 18 13 33t23 38t19 29q25 39 74 143q21 46 43 99t48 118.5t40 98.5q22 53 65 152.5t69 161.5t60.5 148.5t61.5 161.5q4 9 13 10t15.5 -4t3.5 -14q-62 -175 -247 -606q-22 -50 -66 -158t-68 -162q-5 -12 -16 -37.5t-18 -40.5t-17.5 -35t-21.5 -36q-5 -8 -17 -25.5 t-18.5 -27.5t-15 -26t-13.5 -30q-3 -9 -11.5 -11t-15 4.5t-3.5 15.5zM29 934v4q-14 48 7.5 90t69.5 55q46 12 89.5 -4t64.5 -57q30 -66 -16.5 -116t-116 -46t-96.5 70q0 1 -1 2t-1 2zM61 942q20 -53 79 -50q51 3 81 41q33 41 2 85q-18 27 -51 35.5t-63 -4.5 q-34 -13 -46.5 -42t-1.5 -65zM365 224q-13 38 12 81q20 36 46 58.5t60 28.5t70 -19q2 0 2 -2h2q38 -31 45 -78t-20 -88q-26 -37 -72.5 -48t-85.5 9q-46 20 -59 58zM399 279q-13 -31 3 -56t49 -33q35 -8 64.5 6t43.5 38.5t9 56t-33 55.5q-28 21 -55.5 12.5t-46.5 -29 t-34 -50.5z" />
<glyph unicode="&#x26;" horiz-adv-x="575" d="M22 283q0 33 1.5 85.5t1.5 77.5q2 85 18.5 146.5t67.5 95.5q-1 1 -11 6q-27 18 -43 49t-20 76t-4.5 76t4 84.5t4.5 64.5q3 44 29 77.5t62.5 48t80 8.5t78.5 -35q49 -42 57 -148q13 -137 0 -192q-15 -75 -80 -113q46 -25 71 -69t31 -99t5.5 -108.5t1 -115t10.5 -101.5 q12 17 24 37.5t20 36t19.5 40.5t17 37.5t18 43t16.5 40.5q6 16 22 10q14 -5 8 -18q-2 -6 -17.5 -45t-20.5 -50t-19 -42.5t-23 -48t-23 -40t-28 -42.5q30 -72 121 -86q9 -2 11 -10.5t-4 -16t-15 -6.5q-100 16 -137 92q-43 -46 -92 -70q-45 -25 -94.5 -30t-93 19.5t-58.5 78.5 q-9 34 -13 78.5t-4 77.5zM57 430q1 -30 0.5 -113t1.5 -114q5 -103 58 -129q37 -20 78 -13t74.5 25.5t64.5 48.5q5 5 14 15.5t14 15.5q-12 41 -13 104t1 118.5t-3 111t-30.5 99.5t-74.5 67q-2 1 -9 8q-44 -13 -83 -2q-31 -15 -51.5 -41.5t-29 -63t-11 -67.5t-1.5 -70z M67 908.5q0 -21.5 3 -60t12 -68.5q16 -53 67 -70.5t101 7t63 78.5q26 105 -4 245q-25 102 -116 105q-52 0 -84 -25t-35 -76q0 -8 -3.5 -61t-3.5 -74.5z" />
<glyph unicode="'" horiz-adv-x="104" d="M22.5 1130.5q-0.5 14.5 0 45.5t0.5 41q0 9 8.5 13t16.5 0t7 -13q0 -11 -0.5 -38.5t-0.5 -42.5t1.5 -37.5t5.5 -41.5q3 -9 -4 -15t-15.5 -4t-10.5 11q-4 19 -6 43t-2.5 38.5z" />
<glyph unicode="(" horiz-adv-x="258" d="M23 1178q2 56 5 94t12 89.5t28 94t47 76.5q10 11 20 -2q10 -11 0 -21q-30 -37 -49 -88t-25 -102t-8.5 -106.5t0.5 -100.5q1 -48 7.5 -173t5.5 -194q-4 -285 6 -399q11 -124 41 -221.5t98 -165.5q7 -7 3.5 -14.5t-11.5 -9.5t-15 4q-118 115 -145 374q-5 52 -7 114t-2 105 t0.5 118.5t0.5 109.5q0 60 -7 201t-5 217z" />
<glyph unicode=")" horiz-adv-x="247" d="M23.5 -71q-2.5 7 3.5 14q135 119 143 389q2 93 -3.5 264t-6.5 217q-3 33 -0.5 195t2.5 194q0 50 -4 88t-15.5 82.5t-37.5 78.5t-66 56q-8 5 -8 12.5t7 13t15 1.5q129 -71 137 -270q5 -64 1.5 -225.5t-1.5 -225.5q1 -52 5.5 -135t7.5 -142t2 -135t-8 -139 q-26 -232 -148 -342q-7 -6 -15 -2t-10.5 11z" />
<glyph unicode="*" horiz-adv-x="299" d="M25 1366q-9 12 4.5 20t23.5 -4q16 -25 62 -71q-15 143 -15 168q0 11 8 15.5t16.5 0t8.5 -15.5q0 -34 14 -162q3 3 27.5 26t36.5 37q7 7 15 3.5t10.5 -11.5t-3.5 -16q-32 -37 -81 -76q40 -35 98 -70q8 -6 7.5 -14t-8.5 -13.5t-16 -0.5q-26 15 -81 55q3 -61 -13 -123 q-3 -9 -11.5 -11t-15 4t-3.5 15q13 55 10 129q-23 -18 -64 -59q-7 -8 -15.5 -5t-10.5 11.5t4 15.5q24 30 69 66q-43 40 -77 86z" />
<glyph unicode="+" horiz-adv-x="385" d="M24 804.5q-4 8.5 0 16t13 6.5q54 -8 131 -4v303q0 15 16.5 15t16.5 -15v-303q85 0 114 25q7 7 16 3.5t11.5 -11.5t-4.5 -15q-9 -9 -21 -15t-28.5 -9.5t-26 -5t-30 -3t-25.5 -1.5h-6v-234q0 -11 -8.5 -15.5t-16.5 0t-8 15.5v234q-77 -4 -131 4q-9 1 -13 9.5z" />
<glyph unicode="," horiz-adv-x="161" d="M23.5 -199q-3.5 7 1.5 15q89 135 55 278q-2 9 5 15t15.5 4t10.5 -11q34 -156 -60 -303q-6 -8 -15 -6.5t-12.5 8.5z" />
<glyph unicode="-" horiz-adv-x="385" d="M22 806.5q2 8.5 11 10.5q44 7 145 1t144 7q9 3 16 -4t5 -15.5t-13 -10.5q-51 -14 -143.5 -9t-145.5 0q-9 -2 -15 5t-4 15.5z" />
<glyph unicode="." horiz-adv-x="129" d="M23 49q5 14 17 19.5t26 -0.5q8 -3 14.5 -13t5.5 -20q0 -15 -16 -23q-3 -10 -15 -10q-22 0 -30 14q-6 10 -2 33z" />
<glyph unicode="/" horiz-adv-x="503" d="M23 -10q6 44 17.5 94.5t21.5 86t28.5 94t26.5 87.5q14 47 51 181.5t61 207.5q10 29 32 92.5t34.5 100t28.5 90t28 98.5q35 142 78 385q2 9 10.5 11t15.5 -4t5 -15q-44 -246 -80 -385q-14 -55 -31.5 -110.5t-45 -137t-36.5 -108.5q-25 -76 -63.5 -215t-50.5 -178 q-8 -28 -28 -90t-30.5 -98t-23.5 -89t-19 -98q-1 -8 -9 -12t-15 0t-6 12z" />
<glyph unicode="0" horiz-adv-x="481" d="M29 186q-2 45 3.5 133.5t4.5 129.5q0 188 -2 280q-4 207 -2 309q0 18 -0.5 53.5t-0.5 57t1 52t4 54.5q11 84 80 139t151 38q188 -40 181 -289q-1 -33 4 -205q2 -118 -2.5 -346t-4.5 -252q0 -6 -0.5 -32.5t-0.5 -34t-1.5 -31t-3 -33t-4.5 -30t-7.5 -30.5t-11 -27 t-14.5 -28.5t-19 -24.5t-24 -24q-46 -38 -103.5 -44.5t-106 13.5t-83 66t-38.5 106zM60.5 189q2.5 -42 19.5 -72q31 -59 87 -78t108.5 -1t93.5 65.5t45 109.5q6 90 6.5 257t1.5 212q1 64 -3 220t-1 241q2 83 -14.5 142.5t-73.5 90.5q-49 30 -108.5 26.5t-100.5 -46.5 q-33 -36 -45 -77.5t-10 -98.5q0 -26 -2 -99t-1 -112q0 -78 5 -473q4 -148 -5 -232q-5 -33 -2.5 -75z" />
<glyph unicode="1" horiz-adv-x="235" d="M7.5 1407.5q-3.5 7.5 0 15.5t12.5 9q43 3 73 -12t45.5 -45t24 -66t9.5 -81.5t-0.5 -82.5t-4 -78.5t-1.5 -62.5q4 -377 2 -566q-1 -62 4 -209.5t2 -226.5q-1 -9 -9 -13t-15.5 0t-6.5 13q3 73 -2.5 207.5t-5.5 181.5q3 247 0 494q0 52 1 157t1 158q1 31 0 54.5t-7.5 54 t-18 50t-35 32t-56.5 10.5q-9 -1 -12.5 6.5z" />
<glyph unicode="2" horiz-adv-x="622" d="M41 15q-9 39 18 77q19 27 47 31h23q1 4 4 12t4 12q14 37 43.5 112t47 120.5t40.5 109.5t41 119q33 104 47.5 151t38 136.5t33 163.5t8.5 145q-1 31 -3 51t-8.5 50.5t-21 52t-36.5 33.5q-49 24 -91.5 7t-72 -54t-42 -87t-1.5 -92q3 -15 -12 -19t-19 11q-17 63 7.5 134 t82.5 113.5t127 25.5q62 -14 89.5 -69.5t29.5 -127.5q5 -91 -12.5 -200.5t-37.5 -183.5t-57 -192q-40 -126 -163 -448q-6 -15 -17.5 -46t-17.5 -46q13 -4 27 -11t30.5 -15.5t24.5 -12.5q111 -57 186 -39q51 13 76.5 57t26 106t-7 121.5t-17.5 125.5t-10 96q0 9 8 13t15.5 0 t6.5 -13q0 -47 18.5 -154.5t16 -190.5t-46.5 -143q-27 -37 -77.5 -47.5t-98 -1t-88.5 30.5q-7 4 -22.5 12t-24.5 13t-23 10.5t-26 9.5q-2 2 -7 2q-3 -6 -8 -18.5t-8 -18.5q0 -1 -8 -19.5t-15 -28.5t-16 -13q-42 -12 -51 27zM68 49q2 -5 7 -15.5t7 -15.5q16 26 35 74 q-9 0 -13 -2q-30 -12 -36 -41z" />
<glyph unicode="3" horiz-adv-x="518" d="M59 494q-5 8 0.5 14.5t13.5 7t15 -5.5q24 -33 27.5 -91.5t-2.5 -116.5t-6 -114t26 -97.5t84 -55.5q59 -14 101.5 -0.5t64.5 51t34.5 82.5t13.5 106.5t-1 110t-6 105.5t-4 81v19v21.5t-0.5 21.5t-2 23t-3.5 21t-6 21.5t-9 18t-12 16.5t-16 12q-21 11 -23 11 q-39 -42 -110 -39q-14 0 -17 12q-7 38 14 57t60 17q30 -4 43 -8q37 54 37 166q0 15 -1.5 58t-0.5 68q0 13 2 62t0 81t-10 60q-28 97 -84 109q-42 9 -76 -14.5t-45 -65.5q-7 -25 -9 -50.5t-0.5 -67.5t1.5 -52q0 -15 -15.5 -15t-15.5 15q-4 33 -1.5 80.5t9 90.5t34.5 75.5 t75 36.5q48 4 83 -18.5t52.5 -63t25.5 -82.5t7 -86q0 -5 3.5 -109.5t-5 -174t-35.5 -116.5q43 -21 65 -69q16 -36 19 -80t0.5 -99t-0.5 -83q1 -9 5.5 -67.5t5 -81.5t-2 -66t-10.5 -76q-12 -50 -50.5 -91t-85.5 -60.5t-100 -9t-90 55.5q-32 39 -40.5 82t-6.5 107 q0 14 3.5 58.5t4.5 72.5t-5 63t-22 56zM252 748q34 0 61 20q-31 5 -39 4q-22 0 -22 -24z" />
<glyph unicode="4" horiz-adv-x="507" d="M8 367q229 464 305 1052q0 7 6.5 12t12.5 3q12 -4 12 -15q-4 -162 8 -489q1 -21 5.5 -131.5t3.5 -132t-3 -131.5q-2 -24 -6 -71.5t-6 -70.5q85 -4 117 41q8 12 20.5 4.5t5.5 -20.5q-42 -57 -145 -53q-2 -35 -2 -105q0 -39 -1.5 -81t11.5 -87t41 -67q8 -6 5 -14t-11 -11 t-16 2q-60 47 -60 201q-2 54 2 164h-10q-10 1 -52.5 6t-61.5 5.5t-53 -0.5t-59.5 -9.5t-47.5 -24.5q-10 -6 -18 4t-3 19zM55 393q60 22 174 10q9 -1 39 -4t47 -4q6 53 9 105q6 84 6.5 184t-2 172.5t-8 189t-7.5 177.5q-77 -448 -258 -830z" />
<glyph unicode="5" horiz-adv-x="428" d="M39 838q-10 313 4 581q4 15 16 15q144 6 291 0q6 0 10.5 -4.5t4.5 -10.5q3 -35 0 -65.5t0.5 -67t19.5 -61.5q5 -8 0 -15.5t-13 -8t-14 6.5q-12 21 -17.5 47.5t-6 46.5t1 52t0.5 49q-131 6 -262 0q-12 -261 -6 -522q42 38 106.5 51t121.5 -9t75 -77q13 -39 17 -90t2.5 -94 t0.5 -93q1 -25 3.5 -94t3.5 -105t0 -91.5t-5 -100.5q-9 -93 -87 -148t-165 -22q-81 26 -100 144q-8 51 9 176t-5 176q-3 8 3.5 14t15.5 4t12 -10q22 -81 4 -217q-15 -109 -6 -156q9 -55 45 -84q41 -34 83.5 -31t78 27t58 65.5t23.5 84.5q3 99 -1.5 280.5t-4.5 239.5 q0 34 -3 60t-12.5 55.5t-31.5 46.5t-55 18q-56 4 -109.5 -13t-76.5 -59q-6 -10 -17.5 -6t-11.5 15z" />
<glyph unicode="6" horiz-adv-x="456" d="M30.5 324.5q0.5 28.5 2.5 78t2 70.5q1 49 3 147.5t3 147.5q0 35 -4 103t-4 102q-4 175 16 272q27 137 96 172q51 26 112 12.5t101 -53.5q27 -29 37 -70t7.5 -76.5t0 -81t15.5 -77.5q6 -13 -8 -17q-16 -4 -21 9q-2 6 -6 14q-8 26 -10.5 52.5t-1.5 65t0 52.5 q0 119 -117 150q-64 18 -105.5 -17.5t-60.5 -103.5q-14 -53 -19.5 -117t-5 -107.5t3.5 -121.5t3 -111q26 50 80 72q45 21 105.5 15t94.5 -40q16 -16 27 -33.5t17 -39.5t9.5 -38.5t3.5 -44t-0.5 -40t-2.5 -44t-3 -40.5q-4 -60 5.5 -187.5t3.5 -193.5q-4 -47 -14 -83.5 t-29.5 -69t-54.5 -47.5t-83 -9q-81 11 -133 58t-59 126q-4 34 -5.5 75t-1 69.5zM60.5 363.5q0.5 -35.5 2.5 -152.5q5 -65 34.5 -112.5t86.5 -61.5q150 -41 181 82q7 30 11 60t3.5 67t-1 57t-3.5 67t-4 60q-2 50 3 143t5 111q0 86 -39.5 142t-122.5 48q-91 -8 -117 -61 q-5 -9 -8.5 -18t-6 -19.5t-4 -17.5t-2.5 -19.5t-1.5 -17.5t-1 -20.5t-0.5 -18.5q0 -9 -6 -12q-1 -36 -5.5 -153.5t-4 -153z" />
<glyph unicode="7" horiz-adv-x="466" d="M33 1010q14 79 11 131.5t-8.5 134t-0.5 133.5q3 14 16 14q32 0 124 8t156.5 4.5t121.5 -24.5q18 -7 10 -22q-34 -71 -84 -263q-65 -241 -109 -383q-5 -16 -30 -101t-32.5 -110t-28.5 -97.5t-31.5 -110.5t-26.5 -98.5t-28 -111.5t-23 -102q-2 -9 -10.5 -11t-15.5 4t-5 15 q48 216 209 754q22 74 59.5 210.5t54.5 193.5q32 129 66 208q-52 17 -108 19.5t-144 -4.5t-110 -8q-3 -49 2 -130.5t7 -132t-12 -129.5q-2 -9 -10 -11t-15 4.5t-5 15.5z" />
<glyph unicode="8" horiz-adv-x="514" d="M55 636q-1 39 3.5 85t23.5 76t53 39q-34 42 -39 84q0 2 -2 2v2q-6 40 -4.5 162.5t0.5 162.5q-1 36 0.5 60t14.5 53.5t38 42.5q63 34 115 23.5t87.5 -53.5t49.5 -109q7 -36 8.5 -75t0 -88.5t-0.5 -74.5v-26.5v-27.5t-0.5 -25t-2 -27l-4.5 -24t-7 -25.5t-10 -22t-14 -23.5 q21 -16 37 -39t26 -44t17.5 -52.5t11 -53t5 -58.5t2 -54.5t0 -56t-0.5 -49.5q0 -20 0.5 -60.5t1 -68t-2 -66.5t-8.5 -66.5t-19 -58.5t-32.5 -50.5t-50 -34t-69.5 -17.5q-67 -5 -122.5 22t-80.5 84q-24 52 -19 175q0 28 3 96.5t2 105.5q0 15 -5 65.5t-6 89.5zM85.5 598 q1.5 -47 6 -97t4.5 -65q0 -27 -2 -79.5t-2 -77.5q0 -5 -0.5 -32t0 -39t2.5 -33.5t6.5 -37t12.5 -28.5q33 -59 106 -76.5t131 18.5q36 22 56.5 58t26 82t5 86t-3.5 93.5t-2 80.5q3 39 1 90.5t-7.5 98.5t-26 92t-55.5 71q-44 -37 -90.5 -34t-89.5 38q-35 -1 -54 -31.5 t-22.5 -80.5t-2 -97zM121 1294q-4 -267 4 -368q10 -49 49 -88q1 -1 3 -3.5t3 -3.5q60 -60 119 -20q12 6 29 23l4 4q41 48 41 141q-1 27 2 95t0 117.5t-17 92.5q-32 103 -92 115q-55 12 -100 -18.5t-45 -86.5z" />
<glyph unicode="9" horiz-adv-x="432" d="M10 1219q4 35 14.5 69t28.5 66.5t46.5 53.5t64.5 24q70 7 118.5 -35.5t59.5 -112.5q16 -116 16 -397q0 -146 -8 -432q0 -39 -1 -117.5t-1 -118.5q1 -44 4 -71t15 -62t34 -61q11 -13 -1 -24q-10 -10 -19 1q-64 71 -64 217q0 55 5 328q3 156 6 315q-49 -72 -129 -78 q-60 -3 -106.5 23t-59.5 80q-7 28 -17 143q-13 136 -6 189zM41 1094q1 -6 2.5 -72.5t10.5 -108t32 -63.5q31 -30 72.5 -34.5t77 11t61 49t27.5 74.5q0 1 1 3t1 3q0 100 -7 236q-5 94 -18 127q-18 46 -61 71t-88 9q-131 -50 -111 -305z" />
<glyph unicode=":" horiz-adv-x="143" d="M25 629q-7 17 0 33q5 14 16 19t25 -1q9 -3 16 -12.5t6 -18.5q-3 -18 -18 -24q-4 -9 -15 -9q-22 0 -30 13zM33 33q0 21 10 28q10 10 31 7q14 -2 21.5 -13t4.5 -24q-8 -27 -32 -27q-15 -3 -23 14q-12 3 -12 15z" />
<glyph unicode=";" horiz-adv-x="157" d="M25 -184q22 35 35.5 71.5t18 82.5t5.5 73t-1.5 86t-2.5 78q0 15 16 15t17 -15q0 -20 1.5 -81t0 -89.5t-6.5 -76.5t-19.5 -86.5t-37.5 -74.5q-6 -7 -13.5 -6.5t-12.5 8t0 15.5zM41 662q5 14 17 19t26 -1q8 -3 14.5 -12.5t5.5 -18.5q0 -16 -16 -24q-4 -9 -14 -9 q-23 0 -31 13q-6 11 -2 33z" />
<glyph unicode="&#x3c;" horiz-adv-x="651" d="M22 579.5q-2 9.5 7 14.5q61 38 236 163.5t280 178.5q8 4 15.5 -1.5t7.5 -13t-7 -12.5q-101 -52 -268 -171.5t-221 -153.5q32 -13 68.5 -32t61.5 -33.5t66.5 -40t61.5 -36.5q77 -42 164 -88q1 -1 26 -13.5t41.5 -17.5t28.5 -1q13 6 17 -8q4 -16 -9 -21q-6 -2 -14 -2.5 t-14 0.5t-15 4l-13.5 4.5t-14 6t-11.5 5.5q-82 36 -164 84q-31 17 -97.5 56.5t-118.5 67.5t-103 46q-9 5 -11 14.5z" />
<glyph unicode="=" horiz-adv-x="436" d="M24 855.5q-4 8.5 0 16.5t13 7q33 0 171 -9.5t171 0.5q11 1 15 -6.5t-0.5 -16t-14.5 -9.5q-75 -6 -114 -4.5t-113.5 6.5t-114.5 6q-9 1 -13 9.5zM48 723q0 16 15 16q187 0 299 9q9 1 13 -7t0 -16.5t-13 -9.5q-100 -8 -299 -8q-15 0 -15 16z" />
<glyph unicode="&#x3e;" horiz-adv-x="645" d="M22.5 286q-3.5 12 6.5 17q65 31 158.5 96t180.5 117t169 72q-122 59 -283 164q-2 1 -41.5 25t-56 36.5t-46 36t-44.5 46.5t-19 46q-2 9 5 15t15.5 4t10.5 -11q1 -8 4.5 -16t10 -16.5t11.5 -14.5t15 -14.5t14.5 -12t15.5 -12t13 -10.5q39 -31 157 -109q157 -94 275 -151 q11 -5 7 -16t-15 -13q-65 -8 -136 -40t-123 -68t-123.5 -84.5t-119.5 -75.5q3 -8 -0.5 -15.5t-13.5 -7.5h-33q-11 0 -14.5 12z" />
<glyph unicode="?" horiz-adv-x="348" d="M5.5 1282.5q2.5 42.5 14.5 75.5q29 72 109.5 81.5t132.5 -48.5q61 -68 55 -160q-3 -39 -1.5 -137t-4.5 -138q-3 -30 -13.5 -64.5t-21.5 -58t-30 -63t-27 -57.5q-15 -36 -22.5 -54.5t-14.5 -49t-6 -58.5q1 -15 2.5 -40.5t2.5 -46.5t1 -40q0 -9 -8 -13t-15.5 0t-6.5 13 q0 21 -3.5 61t-3.5 72.5t7 60.5q12 50 71 175q32 71 47.5 127.5t14.5 119.5q-2 64 2 191q0 64 -27 111.5t-84 60.5q-128 27 -135 -127q0 -17 -3.5 -104t-3.5 -122.5t3 -99.5t12 -114q1 -9 -6 -15.5t-15 -4.5t-10 11q-10 60 -11.5 138.5t1.5 140.5q1 22 -2 78t-0.5 98.5z M129 37q0 14 8.5 24t22.5 9q29 -4 35 -25q3 -17 -11 -27q0 -10 -12 -14q-19 -7 -33 4q-10 10 -10 29z" />
<glyph unicode="@" horiz-adv-x="765" d="M23 562.5q1 62.5 8 127.5q20 235 135 330q85 67 199.5 73t205.5 -53q163 -107 152 -385q-9 -226 -90 -321q-42 -46 -89.5 -34.5t-66.5 65.5q-108 -110 -180 -40q-57 55 -66 187q-9 135 39 225q54 103 153 65q23 -9 48 -26v43q0 11 8.5 15.5t16.5 0t8 -15.5q0 -26 1 -74.5 t1 -88t-2 -74.5q-8 -86 -8 -131q1 -19 6.5 -43.5t17 -51.5t30 -32t44.5 16q42 42 65 131q67 231 9 393q-28 78 -94.5 130t-145.5 63t-162 -17q-65 -25 -110 -80t-66.5 -119.5t-29.5 -144.5t-5.5 -147t11.5 -135q28 -251 180 -326q94 -48 198.5 -32t176.5 94q7 7 15.5 3.5 t11.5 -12t-3 -16.5q-67 -70 -160 -96t-186 2q-66 21 -116 61.5t-80.5 94.5t-49.5 114.5t-25 129.5t-5 131.5zM258 535q5 -137 53 -185q60 -60 156 51q-6 53 2 160q4 59 4 176q-1 0 -3 1t-3 1q-57 39 -97 33.5t-65 -46.5t-36.5 -90.5t-10.5 -100.5z" />
<glyph unicode="A" horiz-adv-x="534" d="M2 14q11 212 14 486q-6 6 0 16v82q0 63 -6 172.5t-8 172.5v27q0 58 6 144q5 47 11 82.5t20 80t38.5 79t59.5 53.5q43 25 91 25h16q56 -4 102 -39q105 -79 105 -213q1 -76 1 -162.5t-0.5 -193t-0.5 -164.5q0 -87 -2 -132q3 -5 0 -10v-201q0 -92 8 -163q0 -3 1.5 -16.5 t2.5 -21t3.5 -21.5t5.5 -23t7.5 -19t10.5 -16.5t14 -9.5q9 -4 10.5 -13t-4 -15t-14.5 -3q-10 4 -18 10t-14 15.5t-11 17t-8.5 21.5t-6 21t-5 23.5t-3 21.5t-2.5 21.5t-2 18.5q-6 69 -6 278q2 20 2 64q-56 -8 -180 -16q-79 -5 -131 -5q-41 0 -66 3q-4 -85 -4.5 -245.5 t-3.5 -232.5q-1 -15 -17 -15t-16 15zM35 1008v-14q-1 -64 7 -208q5 -94 5 -164q0 -49 -2 -85v-15q19 -3 40 -4t45 -0.5t39.5 1t44.5 2.5t40 3q98 7 166 17v342v237q0 7 0.5 28t0 30.5t-1.5 28t-3.5 30.5t-8 27t-12.5 28q-36 64 -104 98q-34 17 -66 16q-33 0 -63 -17 q-43 -25 -70.5 -69.5t-38.5 -104t-14.5 -103.5t-3.5 -104z" />
<glyph unicode="B" horiz-adv-x="532" d="M0.5 1417.5q0.5 7.5 7.5 13t15 1.5q35 -17 45 -70q38 51 100 65q18 4 36 5q43 0 83 -25q20 -13 35 -30t24 -41.5t15 -42t8.5 -51t3.5 -46.5t1.5 -50.5t0.5 -43.5q0 -20 3 -72q4 -62 4 -89q0 -31 -10 -71q-10 -42 -32 -67q-2 -3 -14 -15q43 -3 67 -20q64 -43 80 -98 q14 -48 16 -112q1 -21 1 -41q0 -41 -3 -75q-2 -26 -2 -54t2 -60q2 -34 2.5 -52t0.5 -53t-5 -58t-14 -50.5t-26.5 -48t-41.5 -33.5q-35 -19 -82 -27.5t-79.5 -8.5t-92 3.5t-81.5 3.5q-15 0 -15 14q0 52 1 180q1 85 1 154q-1 35 -1 65q0 92 -3 179q-3 123 -3 205q0 41 1 73 q5 142 5 237q0 47 -1 83q0 5 -0.5 36t-2 52t-5.5 49.5t-13.5 47t-23.5 26.5q-8 5 -7.5 12.5zM76 1319q2 -14 3.5 -36.5t2.5 -27.5q4 -55 4 -138t-4 -193q0 -23 -1 -71t-1 -73q4 13 14 13h8q2 0 2 -2q12 1 62 -3q32 -2 54 -2h22q2 2 8 2h4q37 6 57 29q15 17 24 39.5t11 51.5 t2.5 49.5t-2 56t-2.5 47.5q-2 25 -2 49q0 20 2 38q1 13 0 26q0 29 -4 62q-6 48 -23 83q-45 83 -108 83q-15 0 -31 -5q-71 -21 -98 -74zM80 772q-1 -56 -1 -131q0 -112 2 -267q3 -257 3 -339q17 -1 64 -4.5t72.5 -4t63 3t66.5 13.5q43 15 68.5 48t32.5 71q7 40 9 84 q1 13 1 24q0 30 -4 58q-2 26 -2 67q0 28 1 62t1 62q0 41 -2 67q-4 121 -76 155q-15 7 -33 11t-29.5 4.5t-34.5 1t-32 0.5h-2q-6 -2 -31 -2q-19 0 -47 1q-68 3 -76 3q-10 0 -14 12z" />
<glyph unicode="C" horiz-adv-x="464" d="M2 451v19q0 47 4 130q3 71 3 118q0 21 -1 38q-3 73 -3 158q0 51 1 106v26v56q-1 28 -1 50q1 22 1 39q2 33 9 77t27.5 78.5t55.5 62.5q34 25 80 25q26 0 56 -8q82 -22 118 -78q47 -76 47 -161q-1 -5 -1 -9q-2 -90 -48 -170q-5 -7 -12 -7t-12.5 7.5t-1.5 15.5q21 38 33 88 q12 48 12 96q1 54 -23 100q-22 44 -67 66q-58 28 -102 28q-51 0 -81 -38q-60 -70 -60 -175q0 -10 1 -20q4 -28 4 -121q0 -38 -1 -86q-1 -112 -1 -166v-40q0 -6 1 -16q0 -49 -5 -195v-26q0 -30 1 -75.5t1 -75.5v-26q1 -12 -1 -56q-1 -33 -2 -54v-13q0 -23 7.5 -55.5 t21.5 -54.5q47 -74 156 -74q134 3 152 129q3 32 3 72v20q-2 52 -4 100v17q0 39 9 79q11 50 39 83q6 8 14 5t10.5 -11t-2.5 -15q-26 -32 -33 -76q-4 -28 -4 -68q0 -22 1 -48q4 -71 4 -84q-4 -155 -70 -203q-49 -33 -120 -33h-10q-78 2 -128 41q-65 54 -72 150q-6 65 -6 258z " />
<glyph unicode="D" horiz-adv-x="550" d="M-55 -12q25 23 53.5 33.5t42.5 10.5t57 1q0 49 1 171q1 82 1 149v63q0 89 -4 172q-3 129 -3 215q0 43 1 74q5 142 5 236q0 47 -1 83q0 5 -0.5 35t-2 51.5t-5.5 49t-13.5 46.5t-23.5 27q-8 5 -7.5 12.5t7.5 13t15 1.5q28 -14 41 -54q37 36 95 50q25 6 49 6q31 0 58 -11 q98 -38 154 -157q17 -38 25.5 -87t9 -76t0.5 -91q1 -67 4 -200.5t4 -199.5q1 -56 1 -106q0 -152 -9 -258q-4 -42 -7 -63t-14 -54t-28 -55q-53 -66 -166 -70q-119 -4 -158 -4h-12q-7 0 -32.5 0.5t-33 0t-25 -4t-30.5 -11.5t-27 -22q-11 -9 -21.5 2t-0.5 21zM117 1348 q0 -1 8 -91q5 -75 5 -175q0 -77 -3 -169q-4 -29 -4 -182q0 -102 2 -258q4 -391 4 -440q19 0 61.5 -1t70 -1t63 7t59.5 21q71 39 82 160q12 126 12 256q0 114 -4 348q1 21 1 153v23q0 111 -5 129q-15 147 -98 222q-51 48 -123 50q-3 0 -7 1q-68 0 -116 -49z" />
<glyph unicode="E" horiz-adv-x="493" d="M2 633v18q0 78 31 129q-15 34 -18 82q-2 26 -2 54q-1 24 1 49q2 39 2 60v13q0 7 -4 59t-4 69.5t1 57.5t7.5 69t18.5 57q27 68 105 81q17 3 34 3q57 0 102 -35q91 -68 91 -203q0 -81 -33 -186q-3 -9 -12 -10.5t-15.5 4t-3.5 14.5q11 36 18 61.5t13 59.5q5 29 5 57v9 q-1 32 -9 61q-18 62 -66 102q-40 34 -90 34q-9 0 -18 -1q-34 -3 -57.5 -21.5t-35 -41t-17.5 -57.5t-7 -60t0 -60q1 -20 4 -60.5t4 -62.5v-18q0 -26 -1 -78q-1 -22 -1 -39q0 -44 4 -57q0 -17 6 -35q35 35 86 35q17 0 37 -4q28 -5 42.5 -24.5t0.5 -45.5q-15 -26 -47 -40 q-26 -12 -52 -12q-6 0 -11 1q-38 6 -60 31q-18 -36 -18 -85v-14q1 -31 7.5 -101t6.5 -108q1 -23 -1 -97q-1 -44 -1 -77v-37q0 -39 2.5 -63t11.5 -51.5t30 -45.5t54 -30q35 -12 67 -12q69 0 124 57q20 21 33.5 46t20 44t9.5 52t3 48.5t-1.5 56t-1.5 52.5l-1 77q0 36 12 72 q12 38 36 62q11 11 23 -2q10 -11 0 -21q-33 -33 -41 -90q-4 -29 -4 -65q0 -32 3 -70q5 -61 5 -90v-14q-6 -165 -151 -234q-27 -14 -62 -14h-11q-42 2 -81.5 16t-69.5 43t-35 66q-4 39 -6 78q-1 23 -1 56v47q1 64 1 77v25q0 26 -1 54q-2 42 -6 93.5t-5 79.5zM70 778 q21 -28 55 -26q28 4 49 14q12 5 17.5 14.5t3 18t-12.5 10.5q-10 4 -32 4q-54 -6 -80 -35z" />
<glyph unicode="F" horiz-adv-x="448" d="M2 784q1 29 5 152q3 98 3 161v29q0 53 2 86t14 77.5t35 78.5q38 56 105 64q12 1 23 2q54 0 104 -29q60 -35 82 -94q31 -79 31 -182q0 -42 -5 -89q-1 -9 -6 -38.5t-6.5 -50.5t-1.5 -47.5t8.5 -45.5t24.5 -29q8 -7 8 -15t-7 -13t-15 0q-40 27 -48 81q-3 22 -3 49q1 39 7 87 q12 82 11 98q0 44 -3 78.5t-13 78.5t-34 74t-61 42q-34 11 -64 11q-40 0 -74 -20q-58 -34 -73 -116q-7 -40 -9 -90q-1 -25 -1 -48q1 -22 1 -42q1 -17 0 -36q0 -25 -1 -53q-5 -139 -5 -232q0 -46 1 -81q33 5 121 10t135 15q9 2 14 -5t4 -15.5t-10 -10.5q-46 -10 -135.5 -14.5 t-128.5 -10.5q5 -95 5 -199v-53q0 -85 -2 -187q-2 -136 -1 -198q0 -15 -15.5 -15t-15.5 15q0 65 1 193.5t1 191.5q0 57 -4 187q-4 106 -4 171v27z" />
<glyph unicode="G" horiz-adv-x="501" d="M2 1117v52q0 69 4 86q5 38 27 79.5t51 66.5q42 33 100 33q21 0 44 -4q85 -17 124 -78q47 -76 47 -162q0 -4 -1 -8q-2 -91 -48 -172q-8 -12 -20.5 -4.5t-5.5 20.5q30 53 41 120q4 24 4 47q0 44 -14 88q-21 67 -79 95q-59 28 -102 28q-50 0 -80 -36q-60 -75 -60 -178 q0 -9 1 -19q4 -68 4 -178q0 -14 -1 -29v-80q0 -75 1 -126q1 -39 5 -137.5t5 -138.5q1 -20 1 -54.5t-1 -83.5q0 -10 -1.5 -39t-1.5 -42v-41t2.5 -42t7.5 -37.5t12.5 -36t19 -28.5t27 -23.5t37 -13.5t47.5 -6q144 0 178 121q16 61 16 135t-5 155q-3 43 -3 78q0 32 2 58 q-37 -2 -106 -10t-80 -9q-9 -1 -13 6.5t0 15.5t13 9q18 2 75.5 8.5t76.5 7.5t77 4q26 2 45 2q21 0 31 -2q15 -2 15 -17t-15 -15q-39 3 -65 3q-13 0 -23 -1q-2 -22 -2 -52q0 -41 4 -98q4 -83 4 -122v-13q-1 -56 -4.5 -91t-20 -83t-47.5 -74q-46 -42 -124 -50q-16 -2 -30 -2 q-59 0 -102 26q-44 26 -64 76.5t-21 94.5v21q0 38 2.5 92t2.5 83v14q-12 202 -12 465v108q0 22 -2 138z" />
<glyph unicode="H" horiz-adv-x="495" d="M0.5 1419q0.5 8 7.5 13t15 0q12 -7 21 -17t15 -24.5t10 -26t6 -30.5t3 -29t2.5 -30.5t1.5 -25.5q4 -56 4 -155.5t-4 -241.5q-2 -86 -2 -260q201 26 344 31v149q0 186 -6 371v25v39.5v42.5v34q-1 30 -12 65t-33 54q-10 10 0.5 20.5t21.5 1.5q24 -22 36 -60.5t13.5 -65 t1.5 -74.5v-13q0 -61 4.5 -184t4.5 -186v-832q0 -14 -15.5 -14t-15.5 14v580q-138 -2 -344 -29q0 -91 2 -273.5t2 -273.5q0 -15 -15.5 -15t-15.5 15q-1 71 -5 373q-2 143 -2 234q0 101 3 139q1 42 3 125q4 83 4 125v32q0 37 -1 91q0 53 -8 159q0 4 -1.5 19.5t-2.5 22.5 t-4 20.5t-6.5 21t-10 16t-14.5 13.5q-8 6 -7.5 14z" />
<glyph unicode="I" horiz-adv-x="126" d="M0.5 1417.5q0.5 7.5 7.5 13t15 1.5q11 -6 20 -15.5t15 -24t10 -26.5t6.5 -31t3.5 -29.5t2.5 -29.5t1.5 -23q4 -68 4 -151t-4 -182q-2 -74 -2 -148t2 -147q1 -47 1 -109q0 -94 -2 -222q-3 -214 -3 -280q0 -15 -15.5 -15t-15.5 15q0 65 3 270q2 123 2 212q0 59 -1 104 q-3 125 -3 209q0 42 1 74q5 136 5 227q0 46 -1 80q0 5 -0.5 36.5t-2 53t-5.5 50.5t-13.5 48t-23.5 27q-8 5 -7.5 12.5z" />
<glyph unicode="J" horiz-adv-x="438" d="M0.5 564q1.5 9 8 12.5t14.5 -1.5q22 -16 33 -51t12 -60q1 -10 1 -25q0 -21 -1 -50q-2 -51 -2 -59q0 -7 -1 -34.5t-1 -39.5t0.5 -39t3.5 -41.5t7.5 -37t12.5 -36t19 -28.5t27 -24t36 -13q33 -7 60 -7q45 0 75 21q42 31 55 125q10 72 10 212q0 43 -1 93q0 119 -5.5 355.5 t-5.5 355.5v164q0 6 1 15.5t1 13.5t-2 8.5t-8 6.5t-16 3q-44 0 -64 -2q-20 -1 -60.5 -5.5t-65.5 -6.5t-59 -1t-62 7q-15 4 -11 18.5t19 11.5q29 -7 72.5 -7t100.5 7q63 8 108 8q39 0 65 -6q12 -3 12 -16q0 -222 8 -668q4 -254 4 -381q0 -159 -16 -225q-28 -112 -102 -129 q-37 -9 -70 -9q-59 0 -104 30q-70 49 -74 196q-1 24 -1 52t0.5 62t0.5 52v23v30.5t-1.5 29.5t-4.5 31.5t-9 24.5t-14 19q-7 6 -5.5 15z" />
<glyph unicode="K" horiz-adv-x="536" d="M0.5 1417q0.5 8 7.5 13t15 0q10 -5 18 -14t13 -18t9.5 -23.5t7 -24.5t5 -27t3 -25t2 -25t1.5 -20q4 -55 4 -138t-4 -193q0 -23 -1 -71t-1 -73q26 18 82 19h13q45 0 61 -6q6 -1 17.5 -5.5t14.5 -5.5q40 57 47 142q8 103 8 159q-1 4 -1 7q0 57 -4.5 165.5t-4.5 165.5 q0 13 15.5 13t15.5 -13q0 -60 4 -195q4 -110 5 -179q0 -15 -1 -29q-4 -142 -33 -205q-7 -18 -22 -41q100 -40 133 -119q18 -40 23 -90q3 -29 3 -66q0 -26 -2 -55q-4 -71 -3 -94q8 -127 10 -188q0 -49 8.5 -77.5t40.5 -53.5q7 -6 4 -14t-11 -11t-16 2q-33 28 -45 59.5 t-14 79.5q0 41 -4 123t-4 123q0 16 2 80q1 21 1 40q0 38 -3 67q-5 43 -23 75q-37 64 -118 94q-48 -48 -119 -57q-20 -3 -43 2.5t-37 18.5v-61q0 -118 2 -300q4 -234 4 -332q0 -15 -15.5 -15t-15.5 15q0 48 0.5 141.5t0.5 151t-1 137t-4 146.5q-3 125 -3 208q0 41 1 72 q5 142 5 237q0 47 -1 83q0 5 -0.5 36t-2 52t-5.5 49.5t-13.5 47t-23.5 26.5q-8 6 -7.5 14zM121 760q-39 -33 2 -39q6 0 22 -4q63 4 101 39q-21 8 -53 8q-57 0 -72 -4z" />
<glyph unicode="L" horiz-adv-x="487" d="M0.5 1417.5q0.5 7.5 7.5 13t15 1.5q19 -9 31 -29.5t17 -52t6.5 -47t2.5 -46.5q6 -63 6 -162q0 -79 -4 -180q-4 -30 -4 -183q0 -102 2 -259q4 -392 4 -440q34 0 103 -1t104 -1q12 1 46.5 -1t61.5 0t43 11q14 6 22 -8q8 -13 -5 -19q-18 -9 -47 -12t-53 -2t-48 0h-243 q-6 0 -10.5 5t-4.5 11q0 50 1 177q1 85 1 154q-1 35 -1 65q0 92 -3 178q-2 96 -2 168.5t2 120.5q3 154 3 240q0 51 -1 77q0 5 -0.5 36t-2 51.5t-5.5 48.5t-13.5 46.5t-23.5 26.5q-8 5 -7.5 12.5z" />
<glyph unicode="M" horiz-adv-x="1050" d="M0.5 1413q0.5 7 7.5 12.5t15 1.5q45 -22 53 -120q34 70 103 101q48 21 101 21q24 0 50 -4q140 -30 184 -122q50 69 128 105q48 23 97 23q29 0 58 -8q31 -9 56 -25.5t41 -34t28.5 -45.5t19 -49.5t11 -57t5.5 -56t3 -57.5q4 -69 4 -180q0 -74 -2 -166q1 -24 3 -144 q1 -54 1 -88q0 -42 -2 -55q-1 -20 -7 -83q-6 -64 -6 -102q0 -5 1 -9q1 -35 3 -82q4 -53 21 -93.5t47 -68.5q7 -7 3.5 -15t-11.5 -10.5t-15 2.5q-30 28 -48.5 70t-23 85t-5.5 91v23q0 34 2 63q3 52 8 461q0 243 -6 323q0 5 -1 26t-1.5 28.5t-2 27t-4 29t-5.5 26.5t-7.5 27.5 t-11 24t-15 24t-18.5 19.5q-55 47 -116 47h-5q-64 -2 -121.5 -38.5t-93.5 -92.5q0 -4 1 -11.5t1 -11.5q9 -94 10 -214v-64q0 -73 -2 -116q-2 -60 -10 -214q-4 -110 -4 -202q0 -66 2 -122q8 -106 8 -159q1 -31 3.5 -49t13 -40.5t29.5 -37.5q7 -6 3.5 -14t-11.5 -11t-15 2 q-24 19 -36 50.5t-14 51t-3 62.5q-1 32 -6 132q-4 83 -4 135v20q0 93 7.5 268t8.5 254q0 180 -10 268q-8 80 -92 121q-58 28 -118 31h-10q-54 0 -104 -27q-54 -30 -76 -92q-5 -10 -18 -10v-15q6 -63 6 -162q0 -79 -4 -180q-4 -172 -4 -274v-24q0 -105 3 -299.5t3 -299.5 q0 -14 -16.5 -14t-16.5 14q2 215 2.5 358.5t-2.5 215.5q-2 96 -2 167t2 119q3 154 3 240q0 51 -1 78q0 5 -0.5 35t-2 51.5t-5.5 49t-13.5 46.5t-23.5 27q-8 5 -7.5 12z" />
<glyph unicode="N" horiz-adv-x="579" d="M0.5 1417.5q0.5 7.5 7.5 13t15 1.5q40 -18 53 -109q36 59 102 87q50 22 104 22q17 0 35 -2q88 -11 135.5 -70t57.5 -150q5 -56 7 -112q1 -32 1 -70q0 -28 -1 -60q-2 -73 -3 -108t-6 -129t-6 -113q-4 -82 -4 -164t4 -163q0 -27 0.5 -66t2 -75.5t13.5 -70.5t35 -52 q7 -6 4 -14t-11 -11t-16 2q-22 17 -34 44.5t-15 49t-4 56.5q-1 36 -5.5 131t-4.5 147v19q0 97 9 261q10 182 11 244q0 187 -8 254q-7 62 -26 101.5t-66 62.5q-41 20 -87 24q-12 1 -23 1q-35 0 -65 -9q-42 -12 -76 -42t-50 -74q-3 -6 -6 -6v-11q6 -64 6 -163q0 -79 -4 -181 q-4 -30 -4 -185q0 -104 2 -264q4 -398 4 -448q0 -15 -15.5 -15t-15.5 15q0 51 1 177q1 84 1 153q-1 34 -1 65q0 92 -3 177q-2 96 -2 168t2 121q3 155 3 241q0 52 -1 78q0 5 -0.5 35t-2 51.5t-5.5 49t-13.5 46.5t-23.5 27q-8 5 -7.5 12.5z" />
<glyph unicode="O" horiz-adv-x="528" d="M0 1115.5q0 43.5 10 106t33 109.5q0 2 2 2q0 4 2 4q47 77 125 93q18 4 35 3q60 0 117 -42q34 -24 57 -66q2 0 2 -2q4 -4 4 -8q26 -51 39 -117q86 11 141 45q8 5 15 0t7.5 -12.5t-7.5 -13.5q-68 -42 -152 -54q1 -6 2 -18.5t2 -18.5q6 -76 6 -154v-56q0 -60 -1 -136 q-1 -114 -1 -153v-283q2 -24 2 -54q0 -20 -1 -42q-2 -56 -15 -94q-30 -89 -104 -134q-42 -25 -87 -25q-35 0 -73 15q-75 32 -108.5 117t-35.5 182q-1 96 -4 288t-4 288q0 29 -4 108t-4 122.5zM32 1122q0 -4 -1 -10q0 -39 4 -104q4 -74 4 -99q1 -69 3 -207.5t3 -207.5 q0 -24 -1 -78v-49v-39q1 -34 5.5 -80t19 -84t37.5 -68q36 -46 82 -62q20 -7 42 -6q28 0 59 11q97 38 114 158q8 59 9 127v36q0 54 -2 115t-2 102v25q0 277 -2 416q0 88 -7 143q-75 0 -112 37q-28 26 -34 68q-1 9 -1 17q0 32 18 58q16 19 37 19q-39 30 -81 38q-12 2 -24 2 q-30 0 -60 -14q-42 -20 -70 -67q-21 -42 -30.5 -99.5t-9.5 -97.5zM283 1282q0 -37 18 -55q31 -31 92 -31h2q-9 51 -30 94q-9 14 -11 19q-22 20 -46.5 14.5t-24.5 -41.5z" />
<glyph unicode="P" horiz-adv-x="462" d="M0.5 1413q0.5 7 7.5 12.5t15 1.5q33 -15 47 -73q48 64 129 78q17 3 34 2q62 0 115 -39q37 -27 52 -61.5t18 -86.5q3 -23 3 -89q-1 -26 -1 -56q-1 -68 0 -106v-38q0 -57 -4 -167q-1 -24 -0.5 -45.5t-1.5 -47t-8 -43.5q-11 -35 -37 -65t-60 -43q-52 -20 -96 -20 q-37 0 -68 14q-38 15 -65 39q0 -94 2 -283.5t2 -284.5q0 -14 -15.5 -14t-15.5 14q0 51 1 177q1 84 1 153q-1 34 -1 64q0 92 -3 176v43v2q-3 3 0 6q-2 79 -2 138t2 99q3 156 3 242q0 52 -1 78q0 65 -4 106q-7 7 -4 19l2 2q-11 69 -39 84q-8 5 -7.5 12zM76 1307q4 -40 4 -56 q6 -63 6 -162q0 -79 -4 -182q-4 -176 -4 -268q2 -2 2 -4q6 -30 45.5 -52t73.5 -24h14q85 0 129 47q11 12 19 27.5t12.5 27.5t7 33t3 30.5t1 34.5t0.5 32q3 84 3 141q0 29 -1 51v32q1 27 1 63q2 61 1 81q0 5 0.5 36t0 45.5t-3.5 39.5t-11 41.5t-21 28.5q-55 51 -124 51 q-13 1 -27 -1q-86 -12 -127 -93z" />
<glyph unicode="Q" horiz-adv-x="444" d="M2 248q0 19 1 52t1 50v50q0 77 -2 224v137q0 94 2 136q2 69 2 137t-2 137q-1 21 -1 41q0 94 32 144q38 59 115 74q23 4 45 4q50 0 94 -23q33 -16 56 -39t34 -50t17 -58.5t5.5 -63.5t-0.5 -67q-3 -44 -3 -167v-104q1 -125 1 -197v-71q0 -97 -4 -285q0 -15 1 -64v-21 q0 -35 -2 -60q-4 -32 -15 -62v-2v-2q-16 -31 -47 -55q35 -62 57 -104q5 -8 0 -15t-13 -7.5t-14 7.5q-38 69 -57 101q-43 -25 -96 -25h-9q-59 3 -106 35q-24 16 -41 34.5t-26.5 41t-15.5 42t-7.5 48t-1.5 47.5zM32 210q1 -28 7 -52q21 -80 102 -112q38 -15 72 -15q40 0 76 20 q-28 40 -43 55q-11 11 1 23q10 10 19 0q25 -25 47 -61q23 20 37 45q10 28 14 59q2 23 2 56v20q-1 46 -1 61q4 144 4 211v54q0 60 1 151t1 152v53q-3 90 -3 150q0 30 1 53q3 33 3 79.5t-12 77.5q-13 36 -48.5 65t-77.5 43q-26 8 -52 8q-17 0 -34 -4q-44 -8 -72 -42 q-31 -38 -38 -89q-4 -32 -4 -72q0 -23 1 -48q3 -58 3 -124q0 -40 -1 -83q-2 -68 -2 -403v-213q0 -15 -2 -53q-1 -25 -1 -46v-19z" />
<glyph unicode="R" horiz-adv-x="536" d="M0.5 1417.5q0.5 7.5 7.5 13t15 1.5q38 -18 49 -89q40 64 112 83q22 6 43 5q48 0 92 -30q37 -29 52 -64t20 -90q3 -30 8 -270q0 -20 2.5 -62.5t2.5 -69.5q0 -4 1 -9q-1 -24 -3 -57q-2 -39 -8.5 -67t-22 -57.5t-39.5 -50.5q65 -46 87 -106q19 -53 19 -132v-22 q0 -10 -2 -39.5t-3 -49t-0.5 -50t3.5 -51.5t10.5 -45.5t19 -39.5t31 -26t44.5 -12q15 0 15 -15.5t-15 -15.5q-130 7 -138 199q0 29 3 100q2 53 2 89v22q-1 60 -26.5 101.5t-76.5 74.5q-5 -5 -14 -8q-32 -18 -80 -18q-13 0 -27 1q-67 6 -104 41q0 -98 2 -295t2 -297 q0 -14 -15.5 -14t-15.5 14q0 50 1 176q1 84 1 153q-1 35 -1 65q0 92 -3 176q-3 127 -3 212q0 42 1 74q5 142 5 237q0 47 -1 83v37.5t-1.5 53.5t-5.5 52t-13.5 48.5t-24.5 27.5q-8 5 -7.5 12.5zM78 1298q0 -9 1 -21.5t1 -16.5q6 -64 5 -163q0 -80 -3 -182q-2 -84 -2 -249v-4 q8 -32 50 -53q39 -19 71 -19h6q80 3 127 61q12 14 19.5 31t10.5 39t4 36.5t1 41.5v37v165q-1 30 -2 89.5t-2 89.5q0 4 -0.5 33t-2 42t-5 36t-11.5 38.5t-20 26.5q-38 36 -86 42q-9 1 -18 0q-39 0 -73 -20q-42 -25 -63 -73q-4 -7 -8 -7z" />
<glyph unicode="S" horiz-adv-x="518" d="M1.5 484q2.5 8 10.5 10.5t15 -2.5q17 -14 26 -33.5t10.5 -33.5t1.5 -41.5t1 -39.5t2.5 -68.5t8 -91.5t23.5 -63q38 -67 123 -85q21 -5 40 -5q59 0 104 43q52 57 71 172q7 55 7 103q0 207 -123 284q-25 17 -72.5 42.5t-77 43t-62 49.5t-51.5 72q-36 75 -36 204q0 62 8 136 q5 42 11 72.5t19 65.5t37.5 60t59.5 39q41 17 82 18q33 1 66 -11q75 -24 108 -97q20 -42 22 -97q1 -14 1 -28q0 -39 -5 -74q-7 -47 -7 -102.5t15 -99.5q3 -9 -3 -14t-14.5 -4t-12.5 10q-15 48 -16 106v16q0 49 5 90q3 40 4 61t-1 58t-13.5 64.5t-32.5 46.5q-38 36 -94 42 l-22 2q-44 0 -82 -22q-71 -41 -88 -147q-18 -102 -17 -185q0 -112 31 -190q18 -45 55 -79t74.5 -52t86 -44.5t77.5 -53.5q99 -93 99 -280q0 -14 -1 -29q-9 -218 -102 -283q-44 -30 -101 -36q-12 -1 -23 -1q-45 0 -87 18q-53 23 -80 70q-33 57 -41 170v50.5t-1.5 64.5 t-9.5 52t-24 42q-7 7 -4.5 15z" />
<glyph unicode="T" horiz-adv-x="595" d="M0 1410q0 15 14 15q28 0 132 1q70 1 113 1q21 -1 37 -1q46 0 125 -7.5t142 -21.5q9 -2 11 -10.5t-4 -15.5t-15 -5q-105 24 -270 31v-2v-699q0 -182 -6 -366q-1 -56 -3 -106v-14q0 -44 10 -92q12 -56 40 -98q5 -8 0 -15t-13 -7.5t-14 6.5q-37 57 -47 123q-7 47 -7 107 q0 24 1 49q8 242 8 366v746v2q-40 0 -120 -1t-120 -1q-14 0 -14 15z" />
<glyph unicode="U" horiz-adv-x="585" d="M6 1407q-10 10 1 21t22 2q22 -20 35.5 -47t19.5 -63t7.5 -58.5t2.5 -63.5q0 -42 3 -174q2 -79 2 -136q0 -38 -1 -67q-8 -285 -10 -430q-3 -25 -3 -57q0 -19 1 -41q3 -58 10.5 -111.5t38.5 -95.5t82 -51q24 -7 53 -7q22 0 47 4q58 9 89 40q56 53 63 157q3 45 5 101 q1 42 2 74v20q0 38 -2.5 105t-2.5 96q0 63 7 211q5 116 5 190v39q0 14 -1.5 57.5t-2 61.5t-3 55.5t-5.5 61t-9 54.5t-13 58q-3 9 3.5 15t14.5 4t10 -11q9 -30 15.5 -65t10 -62t6.5 -69.5t3.5 -63.5t2 -69t1.5 -64v-40q0 -82 -6 -213q-7 -146 -6 -225v-20q0 -40 4 -118v-66 q0 -20 1 -58t1 -57q0 -46 2 -74t13.5 -65.5t33.5 -64.5q11 -11 -1 -23q-10 -10 -19 0q-48 53 -58 141q-46 -137 -188 -145q-12 -1 -23 -1q-153 0 -196 155q-14 48 -19 112q-5 58 -5 98v8q0 42 4 122t5 106q1 18 5 194q3 122 3 204q0 36 -1 65q0 14 1 82v42q0 38 -1 61 q-2 35 -16.5 83.5t-43.5 75.5z" />
<glyph unicode="V" horiz-adv-x="614" d="M2.5 1414.5q4.5 14.5 17.5 8.5q29 -12 47.5 -33.5t25.5 -53t9 -55t2 -60.5v-91.5v-130v-130v-91.5q0 -159 -4 -239v-15q0 -33 3 -86.5t3 -86.5v-15q0 -4 -0.5 -38t0.5 -46t3.5 -38t9.5 -44t18 -33q37 -54 87 -85q36 -22 75 -22q15 0 31 3q61 12 108.5 55.5t59.5 101.5 q27 121 27 207q0 14 -1 27q-10 161 -14 475q0 36 -3 153q-2 70 -2 121q0 34 1 60q-29 0 -53 8q-27 9 -45 35t-22 55t9 56t43 38q29 9 51 9q38 0 54 -27q8 -12 8 -39q0 -12 -2 -27q-4 -29 -8 -75q62 13 127 65q7 6 15 2.5t10.5 -11t-3.5 -13.5q-82 -64 -149 -74q0 -3 -1 -8 t-1 -8q-3 -88 -3 -196q0 -169 7 -386q1 -33 5.5 -100.5t5.5 -101.5v-10q0 -33 -5 -91q-2 -13 -5 -50.5t-5.5 -57.5t-11 -49t-21.5 -50q-46 -75 -126 -113q-39 -18 -77 -18q-40 0 -78 20q-43 22 -80 59t-51 79q-8 23 -12 49.5t-4.5 50t-1 50t-0.5 50.5q0 22 -4 69t-4 69 q1 23 4 71.5t4 71.5q0 31 -2 131q-1 60 0 105v51q1 0 1 64v79l-1 143v23.5v27t-1 26t-3.5 28.5t-7 25t-11 24.5t-16.5 18t-23 14.5q-14 5 -9.5 19.5zM428 1298q26 -38 80 -38q3 42 8 71q1 11 1 20q0 42 -30 47q-31 6 -56 -23q-17 -19 -17 -39q0 -19 14 -38z" />
<glyph unicode="W" horiz-adv-x="1026" d="M6 1407q-10 10 1 21t22 2q24 -23 38.5 -53.5t20.5 -70.5q4 -40 6 -68q1 -17 1 -41v-35q-1 -47 -1 -64q2 -26 2 -92q0 -68 -2 -174q-4 -214 -4 -263q0 -16 -2 -101q-2 -71 -3 -94q1 -5 1 -7q0 -16 2 -101q10 -211 127 -231q28 -5 56 -5q37 0 71 8q62 16 92 66 q49 79 49 207q0 4 2 6v66q-2 140 -1.5 279t1.5 278q1 0 1 137l-1 137v20.5v24t-0.5 23.5t-2.5 25.5t-4.5 23t-7.5 23.5t-11 19t-15 17t-20 11q-9 4 -10 13t4 15t14 3q28 -12 46.5 -34t26 -53.5t9.5 -56.5t2 -61v-90v-125.5v-125.5v-89l1 -225v-124q0 -100 -1 -100 q-2 -10 -2 -33v-4v-28q0 -92 27 -138q29 -46 79.5 -78.5t102.5 -33.5h8q59 -1 111 41q54 44 69 110q26 130 26 211q0 13 -1 25q-10 158 -14 473q0 37 -3 155q-2 71 -2 122q0 35 1 61q-29 0 -56 12q-35 17 -53 59q-10 24 -10 48q0 18 5 34q13 40 60 46q21 4 38 4q44 0 54 -31 q6 -15 6 -41q0 -11 -1 -25q-7 -41 -9 -71q63 13 127 65q8 6 16.5 2.5t10.5 -11t-4 -13.5q-85 -64 -150 -76q-2 -12 -2 -37q-2 -103 -2 -212q0 -181 6 -376q1 -26 4 -74q2 -49 4 -79q1 -18 1 -40v-32q-1 -42 -5 -78q-2 -14 -6 -50t-7 -55.5t-12.5 -46.5t-23.5 -47 q-59 -81 -141 -99q-21 -5 -41 -5q-63 0 -127 41q-77 53 -100 139q-42 -157 -174 -178q-37 -5 -67 -5q-73 0 -112 30q-81 69 -88 192q-6 38 -6 123q-1 81 5 206q10 233 10 316v15q0 49 -2.5 147.5t-2.5 147.5q0 4 -0.5 28.5t-1 32.5t-2 30.5t-3.5 32.5t-6.5 29t-10 30 t-14 24.5t-19.5 23.5zM840 1298q25 -36 73 -36h7q4 46 8 69q1 11 1 20q0 42 -30 48q-30 5 -56 -23q-17 -19 -16 -40q-1 -19 13 -38z" />
<glyph unicode="X" horiz-adv-x="659" d="M2 18q32 83 116.5 277.5t123.5 302.5q26 73 37 115q-59 290 -97 426q-1 4 -10.5 40t-15.5 56t-20 55.5t-26.5 56t-32 37.5t-40.5 19q-9 1 -13 9t0 15.5t13 6.5q29 -3 53 -21t43.5 -55t27 -55.5t21.5 -60.5q1 -3 1.5 -4t1 -3t1.5 -4q44 -134 113 -457q4 17 41 146 q63 229 121 354q14 32 23 49t28 45.5t41.5 43t48.5 15.5q15 0 15 -15t-15 -15q-11 0 -22 -5.5t-20.5 -12.5t-19 -19.5t-17 -23.5t-16 -28l-14 -28t-12.5 -29.5t-10 -26.5t-9 -25t-7 -19q-43 -111 -103 -326q-6 -23 -41 -141q59 -289 113 -451q1 -4 8 -24t10.5 -29 t11.5 -30.5t13.5 -33t15.5 -30.5t18.5 -29.5t20.5 -23.5t24 -19.5t26.5 -10.5t29.5 -3q9 1 13 -6.5t0 -15.5t-13 -9q-7 -1 -13 -1q-27 0 -51 13q-30 16 -51.5 47.5t-35 57.5t-27.5 61q-29 69 -54 155t-39.5 147.5t-35.5 160.5q-1 3 -2 9t-2 9q-44 -126 -137.5 -352 t-120.5 -295q-3 -8 -12 -10t-15.5 4t-3.5 14z" />
<glyph unicode="Y" horiz-adv-x="516" d="M1.5 1418.5q0.5 2.5 2 5.5t3.5 5t5 3.5t5.5 2t5.5 -0.5t6 -4q41 -39 58 -102q15 -55 15 -103v-11q-2 -52 -8 -130q-6 -67 -6 -103v-10q0 -7 0.5 -43.5t1 -50.5t3.5 -46.5t8 -51t14 -41.5t22 -40q27 -35 67 -45q18 -4 37 -4q23 0 47 7q42 12 79.5 32.5t70.5 46.5 q-2 31 -5 93.5t-5 93.5q-6 123 -6 489q0 15 15.5 15t15.5 -15q0 -365 16 -657v-21v-8q5 -95 5 -179t-5 -157q-2 -24 -2 -78t-4 -95t-17 -75q-27 -72 -104 -116q-49 -28 -96 -28q-27 0 -53 9q-35 13 -60 37.5t-37.5 60t-19.5 67.5t-7 79t1 73.5t5 70.5q1 8 1 12q1 9 9 13 t15 0t6 -13q-3 -41 -4 -74q-1 -19 -1 -46v-40q1 -54 11.5 -91.5t29 -72.5t54.5 -48q17 -6 37 -6q22 0 46 7q49 13 86.5 42.5t50.5 72.5q9 32 12.5 64t5 86.5t2.5 66.5q6 87 6 178q0 75 -4 153q-103 -80 -191 -80q-23 0 -44 5q-111 26 -133 178q-12 84 -12 180q0 50 3 104 q1 10 3.5 45.5t2.5 51t0.5 47.5t-3.5 51.5t-10.5 45t-18.5 45t-29 36.5q-3 3 -4 6t-0.5 5.5z" />
<glyph unicode="Z" horiz-adv-x="661" d="M2 35q-1 8 -1 15q0 32 18 51q21 23 55 24h12q28 0 59 -4q2 7 6.5 22.5t6.5 22.5q15 48 36.5 145.5t36.5 145.5q55 184 70 248q22 86 62.5 258t62.5 258q6 25 37 102q-21 0 -45 4q-30 4 -85.5 22.5t-96.5 30.5q-28 8 -59 9q-15 0 -30 -2q-48 -6 -79 -41q-6 -8 -14 -5.5 t-10.5 10.5t3.5 15q14 19 43 37q32 18 75 18q1 -1 2 -1q44 0 79 -10t83.5 -26.5t73.5 -21.5q23 -6 74 -10q46 82 85 82q20 0 38 -21q13 -22 5 -43.5t-27 -34.5q-26 -16 -84 -16q-15 -32 -25.5 -68t-22 -86.5t-16.5 -70.5q-20 -76 -62 -252.5t-69 -268.5q-22 -76 -60.5 -230 t-60.5 -230q3 -1 9.5 -3.5t9.5 -3.5q10 -4 50.5 -22t66.5 -28t53 -17q34 -10 61 -10q55 0 80 41q24 41 24 98q0 20 -3.5 63t-3.5 67.5t5 58t22 59t46 45.5q13 9 19 -5q6 -13 -5 -22q-20 -12 -37 -35q-19 -33 -21 -83v-16q0 -42 7 -76q5 -28 5 -58q0 -14 -1 -30 q-4 -48 -30 -81q-18 -24 -40 -38t-50 -15.5t-48.5 -1t-55 13t-49 18t-50.5 21.5q-51 26 -74 33q0 -6 -4 -14q-26 -84 -80 -86q-29 -2 -53.5 10t-28.5 39zM40.5 42.5q7.5 -23.5 26.5 -28.5t42 15q16 19 26 51q0 4 4 16q-25 7 -44 7q-32 0 -46 -19q-16 -18 -8.5 -41.5z M510 1354h2q13 0 37 4q14 3 18 20q5 14 -4 17q-15 10 -31 -6q-8 -10 -16 -27q-1 -1 -2 -3t-2 -3.5t-2 -1.5z" />
<glyph unicode="[" horiz-adv-x="317" d="M20 1548q0 13 13 17q147 36 231 16q9 -2 11 -10.5t-4 -15.5t-15 -5q-66 17 -201 -12q-8 -3 15 -207q11 -204 4 -459q-2 -88 -8.5 -294.5t-7.5 -295t1 -296.5q101 9 201 0q9 -1 13 -9t0 -15.5t-13 -6.5q-108 9 -215 0q-6 -1 -11 3.5t-5 10.5q-4 166 0.5 392.5t11 400 t3 390t-23.5 396.5z" />
<glyph unicode="\" horiz-adv-x="448" d="M8 1475q-3 9 3.5 14t15.5 4t12 -10q122 -376 197 -748q39 -197 83 -370q1 -6 9 -39.5t10.5 -42t10 -38.5t11 -42.5t10.5 -38.5t12.5 -41.5t13.5 -37.5t15.5 -41t16.5 -38q4 -8 -1.5 -15.5t-13 -7.5t-12.5 7q-13 27 -24.5 57.5t-19.5 53.5t-18.5 60t-15 55t-15 61 t-13.5 57q-47 188 -84 371q-83 407 -203 770z" />
<glyph unicode="]" horiz-adv-x="305" d="M21 1557q0 8 8 14q16 9 42 13.5t40.5 5t52 0t39.5 -0.5q14 0 14 -14q16 -247 25 -414.5t16.5 -387.5t5.5 -423t-14 -397q0 -7 -5.5 -11.5t-13.5 -2.5q-95 13 -170 16q-15 0 -15 15.5t15 15.5q41 -2 160 -15q10 190 12 390t-5.5 411t-17 383t-24.5 404h-22.5h-26.5 t-24.5 -1t-27 -2.5t-22 -4.5t-20.5 -7q-8 -5 -15 0t-7 13z" />
<glyph unicode="_" horiz-adv-x="716" d="M22 -3q0 15 15 15q70 -3 312.5 3t312.5 -9q9 -1 12 -9t-2.5 -15.5t-14.5 -6.5q-69 15 -311 9.5t-309 -2.5q-15 0 -15 15z" />
<glyph unicode="a" d="M2 408q1 34 15.5 79t45.5 74q52 40 119 39h10q74 -4 136 -41q0 6 1 41.5t1 49.5t-0.5 49t-3 53.5t-8 48.5t-13 49t-19.5 39.5t-28 34.5q-37 35 -84 35q-16 0 -34 -5q-68 -17 -83 -86q-10 -43 -10 -99q0 -26 2 -56q1 -9 -7 -13t-16.5 0t-9.5 13q-3 43 -3 74t6 75.5 t27 74.5t56 42q35 11 67 12q43 0 81 -23q64 -38 88 -126q22 -82 24 -188q1 -28 1 -54q0 -74 -5 -137q-1 -17 -1 -51q0 -56 3 -156q1 -9 0 -46t0 -60q6 -6 2 -13v-6q4 -91 46 -102q9 -3 11 -12.5t-4.5 -16.5t-15.5 -4q-51 13 -65 82q-32 -38 -84 -60q-45 -19 -86 -18h-12 q-58 3 -93.5 40.5t-46.5 86.5q-9 38 -9 82q0 12 1 24v20q0 24 -1 62.5t-1 66.5v26zM38 326q1 -31 1 -53v-19q-1 -16 -1 -31q0 -23 2 -43q3 -34 14.5 -72.5t39.5 -58.5q24 -17 58 -16h14q54 5 102 31t60 71v96q-2 48 -2 120.5t2 168.5q-28 22 -70 34q-40 12 -80 13l-4 -1 q-42 0 -76.5 -21.5t-46.5 -61.5q-11 -34 -13 -72q-1 -19 -1 -40t1 -45z" />
<glyph unicode="b" horiz-adv-x="468" d="M0.5 1517.5q0.5 8.5 8.5 14t16 0.5q9 -5 17 -12t13.5 -17.5t10 -20t8 -24.5t5.5 -24t3.5 -26t2.5 -24t2 -23.5t1 -19.5q5 -77 5 -179q0 -80 -3 -175q-2 -14 -2 -45q51 42 116 48q10 1 20 1q54 -1 100 -29q56 -34 77 -100q19 -62 19 -150q0 -26 -2 -53q-2 -38 -2 -83 q0 -63 4 -138q6 -109 6 -168q0 -22 -1 -38q-13 -200 -118 -224q-19 -4 -39 -4q-39 0 -80 16q-62 24 -98 72q2 -25 2 -76q0 -17 -17.5 -17t-17.5 17q-1 60 1 192q1 99 2 181v52q0 100 -5 192q-2 105 -2 183t2 130q5 126 5 216q0 67 -3 114q0 4 -0.5 38t-2 56t-6 53 t-14.5 51.5t-26 28.5q-8 6 -7.5 14.5zM86 662q0 -7 -1 -18q1 -55 3 -218q2 -196 2 -236q4 -4 4 -10q1 -39 34 -76.5t76 -55.5q28 -12 57 -13q15 -1 30 3q44 10 63 54q10 22 17 48t11 47t6 53t3 49t0 54t-1.5 49t-3.5 53t-3 49q-1 13 -1 31q0 41 4 110q2 47 2 81q0 38 -3 60 q-8 107 -61 146q-48 37 -103 37q-9 -1 -17 -1q-64 -6 -112 -57q0 -4 -4 -4q-2 -195 -2 -235z" />
<glyph unicode="c" horiz-adv-x="417" d="M2 749q9 185 119 228q37 14 67 14q8 -1 15 -1q36 -4 61.5 -25t41.5 -53.5t24 -71.5q7 -37 6 -73q0 -41 -8 -77q-2 -9 -11 -11t-16 4t-4 15q10 34 10 80q1 18 -1 38q-6 70 -42 106q-35 34 -79 34q-15 0 -29 -3q-62 -14 -88 -72q-16 -35 -24.5 -75t-8.5 -86t2.5 -79.5 t8 -88t7.5 -77.5q1 -17 1 -40q0 -37 -3 -89q-4 -70 -4 -106v-13q1 -36 4 -59.5t14.5 -55.5t32.5 -49q32 -27 76 -29q5 0 9 1q38 0 69 18q32 19 48.5 46t18 54.5t2 60.5t1.5 65q7 92 69 116q16 6 25 -10q5 -12 -6 -18q-34 -15 -47 -49q-11 -29 -11 -58v-11q2 -35 2 -78.5 t-10 -68.5q-24 -55 -88 -85q-39 -18 -75 -18q-23 0 -46 7q-121 43 -121 230v12q0 21 2 70t2 76v31v37q0 41 -4 75q-12 127 -12 189v23z" />
<glyph unicode="d" d="M0 748q0 90 25 141q27 61 89 87q37 15 76 16q26 0 50 -6q64 -16 100 -66q-3 120 -3 198q0 39 1 68q0 13 3 57.5t3 75t-3 69.5t-15 68t-33 45q-13 11 -4 26q9 13 20 3q22 -17 36 -42t19.5 -59t7 -57.5t1.5 -60.5q0 -225 2 -346q2 -126 1.5 -251.5t-1.5 -250.5 q0 -158 2 -236q2 -10 2 -39q2 -2 2 -8q0 -4 -2 -6q9 -113 35 -145q11 -13 -3 -24q-11 -10 -20 1q-18 23 -33 90q-29 -63 -96 -90q-42 -18 -79 -18q-46 0 -85 28q-36 28 -57.5 77.5t-27.5 101.5q-6 53 -8 109q-1 23 -1 42q0 30 2 55q3 98 3 152q0 32 -1 49q-8 53 -8 135v11z M35 719q5 -121 5 -228q0 -46 -1 -90v-37.5v-42t1 -39.5t2.5 -43t5 -39t8 -41t12 -35.5t16.5 -35.5q40 -66 100 -66q13 0 27 3q60 14 95.5 54t39.5 101q-4 86 -4 125q-1 69 -1 150.5t0.5 180.5t0.5 150q0 38 -4 54q-9 49 -50 83q-40 33 -89 37q-5 0 -11 1q-43 0 -84 -25 q-46 -33 -58 -87q-11 -47 -11 -109v-21z" />
<glyph unicode="e" horiz-adv-x="417" d="M2 680v25q0 170 64 237q49 50 112 50h2q64 -1 111 -54q29 -31 41 -86q11 -47 11 -92v-14q-2 -52 -13 -97q-10 -39 -29.5 -64t-49.5 -38t-56 -19t-69.5 -13t-68.5 -13q-5 -2 -10 0q4 -58 4 -107q0 -35 -2 -65q-2 -32 -2.5 -48.5t-0.5 -54t4 -59.5t13 -52t24 -46t39 -26.5 t56 -8.5q45 3 85.5 27.5t47.5 64.5q4 19 5 37.5t0 48.5t-1 37q0 115 72 147q17 7 24 -10q5 -12 -7 -18q-38 -16 -50 -54q-8 -27 -8 -55q0 -12 1 -23q3 -25 3 -52q0 -16 -1 -34q-3 -46 -23 -73q-42 -55 -114 -72q-21 -5 -41 -5q-49 0 -91 30q-29 25 -46.5 57t-21.5 76 q-6 44 -6 72v7q0 27 4 75q4 54 4 71v22q0 51 -6 131q-8 100 -10 138zM34 704q0 -44 2 -68.5t5 -61.5q1 -16 2 -23q2 -6 2 -19h4q25 6 84 15t88 18q76 25 84 137q3 18 3 40q0 17 -2 37q-4 45 -13 86.5t-39 69.5q-28 26 -68 26h-6q-35 -2 -62 -18.5t-43 -39.5t-25.5 -59 t-13.5 -66q-3 -26 -3 -63q1 -6 1 -11z" />
<glyph unicode="f" horiz-adv-x="200" d="M-60.5 -416q-2.5 32 3.5 56q18 87 52 169t89 191q6 613 6 614v43q0 89 -6 229q-7 179 -8 206q-68 -18 -111 -23q-11 -1 -15.5 7t0 17t15.5 11q37 4 111 20v35q0 9 -1 46.5t-0.5 62t2.5 64.5t8.5 68t17 57.5t29 48.5t42.5 26q9 4 15.5 -2.5t5 -16t-10.5 -12.5 q-17 -5 -30 -21.5t-20 -35t-12 -47t-6.5 -45.5t-3 -45t-1.5 -33q-2 -47 -2 -141q75 20 135 28q11 1 15.5 -7t0 -16.5t-15.5 -9.5q-63 -8 -133 -28q0 -80 6 -156q6 -113 7 -239q1 -76 1 -164v-123q-1 -80 -1 -140t1 -100q0 -58 -4 -172v-10q-7 -170 -7 -255q0 -29 1 -48 q0 -6 1 -32t0.5 -42.5t-2.5 -43.5t-7.5 -45t-14.5 -36.5t-24.5 -28t-36.5 -10.5q-31 -1 -52.5 19t-29 49t-10 61zM-27 -389q-1 -10 -1 -19q0 -47 18 -79q19 -26 37.5 -21.5t32 23t16.5 39.5q5 10 5 71q0 6 -1 13v83q1 35 2 103t2 102q-35 -67 -53 -105t-37.5 -99.5 t-20.5 -110.5z" />
<glyph unicode="g" horiz-adv-x="450" d="M-80 -350q-1 3 -1 5q0 58 32 109q42 72 107 132.5t139 95.5q1 1 4.5 2t5.5 2q-98 20 -135 129q-30 89 -34 211q-2 43 -2 83q0 71 5 130v19q0 28 -1 76q-3 56 -3 95q0 8 1 15q0 44 14.5 97t45.5 87q34 37 86 49q20 5 39 5q32 0 62 -13q48 -19 75 -68q1 13 3.5 36t3.5 30 q2 11 10.5 13t16 -4.5t5.5 -16.5q-14 -102 -14 -257q0 -85 4 -186q8 -158 8 -473v-10q14 1 40 4t38 4q15 0 15 -16.5t-15 -18.5q-13 -1 -38.5 -4t-39.5 -4v-39q0 -39 1 -77v-21q0 -48 -8 -98q-9 -60 -26 -111t-56.5 -92.5t-98.5 -63.5q-44 -16 -87 -20q-11 -2 -22 -2 q-33 0 -66 10q-45 13 -73 47q-40 48 -41 109zM-41 -341q0 -40 15 -71q17 -34 54 -54q31 -16 70 -16q8 0 17 1q79 6 140.5 54t84.5 122q12 35 17.5 78.5t6.5 70.5v20q0 25 -1 62q-1 57 -1 74q-4 -1 -12 -2t-12 -2q-261 -59 -358 -248q-21 -43 -21 -89zM72 324q4 -96 26 -168 q25 -91 78 -119q31 -16 77 -16q15 0 32 2q56 12 77 14q2 109 2 190t-2 135q-1 43 -5 145t-5 145v56.5v86.5v6q0 50 -26.5 94t-69.5 61q-17 6 -34 6q-30 0 -64 -18q-72 -44 -80 -176q-3 -49 -3.5 -142t-2.5 -132q-3 -38 -3 -83q0 -41 3 -87z" />
<glyph unicode="h" horiz-adv-x="462" d="M0.5 1517.5q0.5 8.5 8.5 14t16 0.5q12 -6 21 -16t15 -25.5t10.5 -28t7 -33t3.5 -30.5t2.5 -31t1.5 -25q6 -67 6 -170q0 -82 -4 -188v-45q62 49 136 51h5q71 0 125 -55q46 -52 56 -122q7 -45 6 -98q0 -31 -2 -65q-2 -59 -2.5 -169.5t-1.5 -145.5q0 -119 6 -178 q0 -3 1.5 -16t2 -18t2 -17.5t3.5 -19t5 -17t6.5 -17t9 -14t11.5 -12.5q13 -10 0 -22q-12 -11 -23 -1q-23 19 -35.5 55.5t-15.5 66t-4 69.5v10q-1 25 -1 71v82q1 66 1 110v46v12q0 35 4 121q2 43 2 74q0 42 -4 59q-17 120 -78 154q-43 23 -84 23q-13 -1 -27 -3 q-55 -10 -98 -55q-4 -4 -8 -4q-2 -40 -2 -150q0 -109 2 -289q4 -358 4 -440q0 -17 -17.5 -17t-17.5 17q2 228 2.5 380.5t-2.5 228.5q-3 142 -3 237q0 48 1 84q5 148 5 246q0 49 -1 86q0 4 -0.5 38t-2 55.5t-6 52t-14.5 51t-26 28.5q-8 6 -7.5 14.5z" />
<glyph unicode="i" horiz-adv-x="139" d="M2 977q1 10 9 14.5t18 -0.5q67 -37 67 -141q2 -40 2 -100t-2 -140q-4 -120 -4 -221q0 -72 2 -133q0 -4 -0.5 -29t-0.5 -43t1.5 -45.5t5 -46.5t11 -36t18.5 -23q9 -7 9 -16t-9 -15t-18 0q-7 3 -12.5 8t-9.5 12t-7.5 13t-6 16t-4 15.5t-3 17t-2.5 16t-2 16t-1 13.5 q-7 81 -7 192q0 44 1 93q0 62 2 142t2 142q1 7 3 62q2 34 1 58q-1 14 -1 26q-2 28 -14.5 65t-39.5 52q-9 6 -8 16zM8 1139q6 17 20 24t29 -2q11 -5 19.5 -16t7.5 -21q-3 -21 -23 -28q-4 -11 -16 -11q-28 0 -35 17q-6 11 -2 37zM41 1128zM41 1128z" />
<glyph unicode="j" horiz-adv-x="178" d="M-61 -422v13q0 30 7 65q10 42 17 70.5t29.5 77.5t31.5 68t37 72t33 62q4 266 4 402q0 45 2 156q2 79 2 134v39q0 10 1.5 43t0.5 53t-4.5 48t-15.5 47t-31 30q-14 9 -5 23.5t24 7.5q29 -17 44.5 -51t18 -60.5t2.5 -70.5q-4 -286 -4 -426q0 -113 -5 -368q-3 -209 -3 -338 v-54v-17q0 -127 -70 -159q-15 -7 -29 -7q-19 0 -36 12q-29 21 -39 58q-10 34 -12 70zM-25 -430q5 -40 9 -51q20 -51 44 -51q15 0 31 20q33 35 33 117q-4 132 -4 176v14q1 22 2 66t2 67q-40 -76 -61 -119.5t-41 -113.5q-16 -56 -16 -102q0 -12 1 -23zM57 1139q6 15 19 21 t28 -1q10 -3 18 -14t7 -21q-3 -19 -20 -26q-4 -11 -17 -11q-24 0 -33 17q-6 10 -2 35zM88 1128zM88 1130z" />
<glyph unicode="k" horiz-adv-x="450" d="M0.5 1515.5q0.5 8.5 8.5 14t16 0.5q12 -6 21 -16t15 -25t10.5 -27t7 -33t3.5 -30.5t2.5 -31t1.5 -24.5q5 -77 5 -179q0 -80 -3 -175v-33q38 30 86 34q6 0 11 1q42 0 79 -24q20 -13 33 -34t19 -50t8.5 -51.5t3.5 -56.5t2 -46q0 -4 2.5 -33t3.5 -42t2 -43.5t0.5 -49t-2 -47 t-6 -49t-11 -43t-16.5 -39.5q38 -40 51 -109q4 -18 8 -56.5t9 -63.5t15.5 -54t33 -46t55.5 -21q9 -1 13 -9.5t0 -16.5t-13 -7q-64 7 -95.5 49.5t-41.5 114.5q0 3 -2.5 26.5t-3.5 31t-4.5 27t-6.5 30.5t-8.5 26t-11.5 27q-12 16 -16 22q-37 -40 -95 -43h-17q-74 0 -87 41v-4 q2 -29 2 -84v-82q2 -29 2 -84v-82q0 -15 -16.5 -15t-16.5 15q0 55 1 190q1 90 1 164q-1 37 -1 69q0 98 -3 190q-4 108 -4 199q0 65 2 122q5 147 5 244q0 48 -1 84q0 4 -0.5 38t-2 55.5t-6 52t-14.5 50t-26 27.5q-8 6 -7.5 14.5zM84 598q0 -55 2 -84v-84v-51q7 27 35 41.5 t58 13.5t54 -8q25 -7 41 -18q9 15 15 36q18 58 18 137q0 24 -2 50q-3 35 -9 114.5t-9 114.5q0 9 -4 25q-6 20 -23 41q-23 20 -39 24q-19 8 -47 8q-29 -4 -47 -14q-41 -23 -41 -57q0 -27 -2 -41v-82v-84v-82zM121 375q-12 -24 26 -27h13q37 0 74 14q7 2 10 5q2 2 6 7t6 7 q-20 12 -33 14q-28 6 -48 6q-42 0 -54 -26z" />
<glyph unicode="l" horiz-adv-x="135" d="M1.5 1518q1.5 10 9 14t16.5 -2q22 -17 35.5 -41.5t18.5 -58.5t6 -55.5t1 -59.5q2 -129 2 -387q2 -120 2 -240t-2 -239q0 -154 4 -232q1 -10 2 -37t2.5 -42.5t4.5 -38t10 -40t18 -32.5q6 -8 0.5 -16t-14 -9t-15.5 6q-17 24 -27.5 56t-14 74.5t-4.5 68.5v32v45q1 51 1 62 v457q0 270 -4 405q1 14 1 55v26q0 25 -1 45q-1 30 -4.5 66.5t-13.5 62.5t-27 38q-8 7 -6.5 17z" />
<glyph unicode="m" horiz-adv-x="739" d="M0.5 968.5q0.5 8.5 8.5 14t16 0.5q45 -24 55 -84q28 43 68 67q31 19 67 19q10 0 21 -2q64 -8 106 -82q31 55 93 77q30 10 60 11l64 -12q33 -13 56 -41.5t33.5 -68.5t15 -72.5t6.5 -73.5q2 -90 2 -180t-2 -181q0 -14 -1 -51t-1.5 -62t2.5 -61.5t9.5 -62.5t20 -52t33.5 -42 q12 -9 0 -21t-24 -2q-55 44 -68 180q-5 47 -5 99v27q0 42 2 92q2 68 1 98q0 19 0.5 72t0.5 81.5t-2.5 71t-8.5 76.5q-24 129 -94 147q-20 5 -39 5q-32 0 -62 -13q-50 -21 -69 -70q-1 -2 -7 -8q9 -27 15 -51q10 -57 11 -121q0 -19 1 -40q-1 -49 -3 -108q-4 -85 -3 -122 q1 -16 -1 -76q-1 -30 -1 -52q1 -22 1 -36q2 -28 6 -76.5t16.5 -85.5t33.5 -69q5 -8 -0.5 -16t-13.5 -9t-14 6q-52 84 -60 254q-4 110 -4 202.5t4 166.5q1 47 3 90v13q0 36 -9 78q-11 48 -35 85q-33 49 -79 53h-9q-41 0 -75 -30q-38 -32 -54 -82q0 -5 -2 -7q2 -56 1.5 -111.5 t-1.5 -111.5q-1 -89 -1 -148q1 -30 1 -52q0 -66 2.5 -199t3.5 -199q0 -17 -17.5 -17t-17.5 17q0 62 -4 232q-3 114 -3 192q0 39 1 70q-1 30 1 122q1 55 1 94v46q0 8 0.5 47t-1.5 58t-12.5 45t-31.5 38q-8 6 -7.5 14.5z" />
<glyph unicode="n" horiz-adv-x="454" d="M0.5 971.5q0.5 9.5 8 14t16.5 -0.5q36 -19 53 -65q34 48 89 64q20 6 41 6q34 0 68 -17q63 -36 85 -102.5t24 -157.5q1 0 1 -185l-1 -184q0 -10 -0.5 -49t-0.5 -60t3 -57.5t9.5 -60t20 -48.5t32.5 -40q8 -7 5 -15.5t-12 -11.5t-18 2q-54 44 -68 182q-4 48 -4 147 q0 66 2 154v71q2 48 2 78v12q0 26 -2 58q-2 40 -6 74q-19 145 -98 168q-22 5 -42 5q-28 0 -55 -10q-45 -18 -63 -66q-1 -1 -2 -4.5t-2 -4.5q2 -42 2 -106t-2 -150q-1 -46 -1 -106q0 -91 2 -216q3 -208 3 -274q0 -11 -8 -15.5t-16.5 0t-8.5 15.5q0 62 -4 230q-3 112 -3 190 q0 39 1 70q3 117 3 196q0 40 -1 70q0 8 1 36.5t0.5 44t-4 38.5t-14.5 39t-28 26q-8 6 -7.5 15.5z" />
<glyph unicode="o" d="M2 575q0 15 16.5 15t16.5 -15q0 -33 7 -124.5t7 -124.5q0 -15 -1 -43.5t-1 -51.5t2 -43q17 -129 96 -149q31 -7 56 -7q51 0 80 29q53 52 63 131q6 45 5 97q0 40 -3 84q-2 26 -5 78.5t-5 78.5q-72 -42 -131 -42q-50 0 -90 30q-93 67 -93 241q0 14 1 29q2 33 9.5 65.5 t21.5 65.5t42 53q26 19 61 19h3q72 -1 133 -56t72 -126q5 -33 5 -69v-18q0 -29 -2 -63q-2 -46 -2 -69q16 12 46 41q7 8 15 4.5t10.5 -12t-3.5 -15.5q-32 -36 -68 -59q1 -28 6.5 -87t6.5 -89q4 -28 4 -66q-1 -11 -1 -23q-2 -52 -7 -99.5t-27 -91.5t-59 -66q-36 -23 -83 -27 q-10 -1 -19 0q-37 0 -73 14q-44 18 -65 56q-35 67 -35 200v12q0 44 -6 140.5t-6 140.5v12zM55 788q0 -11 -1 -22q0 -177 77 -219q38 -21 80 -21q58 0 125 41q-2 24 -2 48t2 47q2 19 2 38.5t-2 39.5q-3 40 -10.5 76t-30.5 68t-59 52q-36 21 -66 21q-17 1 -32 -7 q-40 -20 -60.5 -63.5t-22.5 -98.5z" />
<glyph unicode="p" horiz-adv-x="436" d="M0.5 975q0.5 8 8.5 13.5t16 0.5q34 -19 49 -57q40 36 94 50q24 7 49 7q29 0 59 -9q53 -18 80 -71q14 -27 21.5 -64.5t9 -57t2.5 -70.5q6 -147 6 -295q-4 -114 -4 -176q2 -33 2 -58q0 -34 -4 -51q-9 -44 -35.5 -78t-66.5 -49q-28 -9 -56 -9q-27 0 -53 8q-56 16 -90 57 q0 -67 -4 -203q0 -14 -4.5 -68.5t-4.5 -85.5t11.5 -69.5t36.5 -57.5q9 -6 8 -15.5t-8.5 -13.5t-16.5 1q-32 22 -48 61q-14 37 -14 73q0 22 3 83q7 88 7 234q0 58 -1 126q-3 200 -3 335q0 67 1 118q2 74 2 223v19.5v22t-1 21t-2.5 22.5t-5 19.5t-8 20t-12 15.5t-16.5 14 q-8 6 -7.5 14zM82 895q4 -18 5 -40t0.5 -48t0.5 -39q0 -62 -2 -222q-2 -114 -2 -191v-56q0 -24 1 -70.5t1 -68.5v-2q11 -32 20 -66v-4q31 -47 92 -53q8 -1 16 -1q53 0 96 36q50 39 50 109v63v124q2 119 2 158q0 24 1 95v34q0 50 -2 88q-3 51 -13 95q-15 63 -62 94 q-35 24 -76 24q-13 0 -27 -2q-57 -10 -101 -57z" />
<glyph unicode="q" horiz-adv-x="407" d="M2 353q-1 40 -1 77q0 73 5 133v29v64q-2 49 -2 85v23q1 43 15 95t44 85q36 39 89 48q16 2 31 2q37 0 73 -15q44 -15 66 -57q1 10 3 30.5t3 30.5q2 9 10.5 11t15.5 -4t6 -15q-11 -71 -14 -158v-4v-2q-2 -44 -2 -104q0 -95 5 -229q6 -159 6 -255q0 -36 -1 -63 q-1 -31 -1 -93q0 -31 1 -69v-43q0 -82 -2 -121q0 -7 -2.5 -44t-2.5 -58.5t3.5 -52.5t16 -51.5t32.5 -30.5q8 -6 8 -14.5t-8.5 -14.5t-17.5 -2q-25 11 -40.5 34.5t-19.5 50.5t-6 56.5t0 52.5q2 53 2.5 136.5t1.5 113.5q-46 -12 -86 -12q-50 0 -93 18q-76 32 -107 129 q-27 88 -31 208zM36 331q5 -95 27 -165q26 -92 78 -119q33 -17 79 -17q43 0 99 15v37q1 86 1 164q0 182 -5 325q-3 105 -3 175q0 35 1 61v6q0 49 -27 90.5t-70 56.5q-15 5 -31 5q-29 0 -62 -17q-72 -43 -80 -166q-3 -51 -3.5 -147.5t-2.5 -136.5q-3 -38 -3 -82q0 -40 2 -85z " />
<glyph unicode="r" horiz-adv-x="374" d="M0.5 975q0.5 8 8.5 13.5t16 0.5q42 -24 55 -76q52 78 120 78h5q74 -3 98 -59q13 -31 14 -85v-26q0 -39 -2 -73q-1 -9 -1 -19q0 -35 10 -73q12 -46 43 -70q8 -6 6.5 -15.5t-9 -14t-16.5 0.5q-15 11 -26 24t-17.5 31t-10.5 32t-5.5 37.5t-2 35t0 38t0.5 33.5q0 4 0.5 27.5 t0 35.5t-3 31.5t-8.5 33t-16 22.5q-24 22 -51 22t-50 -16.5t-41.5 -38.5t-31.5 -47q2 -42 2 -105t-2 -147q-1 -48 -1 -138q1 -68 1 -158q1 -127 0 -208v-88q0 -15 -17.5 -15t-17.5 15v77q-1 71 -1 180q-1 78 0 136q0 77 1 119q2 88 2 267v61q-3 6 0 12q-4 70 -45 95 q-8 6 -7.5 14z" />
<glyph unicode="s" horiz-adv-x="391" d="M4 391q-5 9 0.5 17.5t14 9t14.5 -7.5q31 -53 31 -133q0 -15 -1 -31q-3 -57 -3 -76q0 -33 14 -65q15 -34 47 -52q29 -15 61 -21q12 -2 24 -3q20 1 42 7q34 10 55 34q53 56 53 168q-4 134 -73 178q-18 12 -38.5 22.5t-50 23t-40.5 17.5q-61 30 -94 72.5t-42 107.5 q-7 42 -8 87v9q0 41 8 87q9 51 31 82q37 47 95 62q23 6 46 6q34 0 66 -13q44 -16 64 -59t20 -95q0 -12 -6 -56t-7.5 -74t9.5 -61.5t37 -41.5q16 -6 11 -23q-5 -16 -19 -10q-39 13 -55 51q-14 32 -13 69v13q3 44 5 94q1 18 0 35q0 28 -2 53q-2 39 -30 63q-24 21 -70 21h-12 q-53 -3 -87 -34q-33 -31 -45 -79q-12 -50 -12 -102q0 -47 9 -92q9 -46 35.5 -78t54 -46t73 -34.5t71.5 -37.5q102 -69 102 -209v-8q-5 -183 -104 -224q-36 -17 -79 -17q-18 0 -38 3q-66 10 -100 55q-27 34 -35 81q-5 30 -5 57q0 15 2 29q2 20 2 41.5t-2 45.5q-4 48 -26 82z " />
<glyph unicode="t" horiz-adv-x="292" d="M-58 1083q5 8 13.5 8t15.5 -8q-3 7 -2 7.5t8 0.5q3 0 5.5 0.5t5.5 0.5q25 0 37 2q71 8 110 14q6 153 6 309q0 15 16.5 15t16.5 -15q0 -203 -2 -305q26 4 80.5 11.5t81.5 11.5q14 3 19 -12q3 -16 -11 -19q-29 -4 -85.5 -12.5t-84.5 -12.5l-3 -207t-3 -206q-4 -268 -4 -357 v-28q1 -27 0 -55t2 -58t9.5 -55t24 -47t44.5 -35q8 -6 7.5 -14.5t-8.5 -14t-16 -0.5q-90 43 -94 191q-3 93 -3 186.5t3 187.5q1 48 1 128v87.5v86.5q0 80 1 128q0 13 1 39t1 39q-6 -1 -18.5 -3t-18.5 -3q-4 -1 -32 -6.5t-48.5 -8t-43.5 -0.5t-31 13q-6 8 -1 16z" />
<glyph unicode="u" horiz-adv-x="477" d="M1.5 968.5q-1.5 8.5 5 16t16.5 6.5q21 -4 35.5 -20t21.5 -46.5t9 -44.5t5 -44q5 -62 5 -188q0 -63 -1 -142q-3 -78 -4 -143q0 -84 6 -148q2 -26 7.5 -52t17 -55.5t29 -47t42.5 -27t58 5.5q38 14 68 51t43 80v2q-13 83 -17 225q-2 58 -2 145.5t2 202.5q0 21 2 69 q1 36 1 66q-1 10 -1 19q0 37 -4 70q-2 10 5.5 16.5t16.5 4.5t11 -13q9 -69 9 -149.5t-4.5 -179t-4.5 -150.5q4 -215 16 -295q12 -112 34 -147q14 -21 32 -23q9 -1 13 -9.5t0 -16.5t-13 -7q-60 7 -84 113q-35 -63 -90 -96q-31 -18 -62 -18q-25 0 -51 11q-30 13 -51 36.5 t-32 48t-17 62t-7.5 62.5t-2 67.5t-1.5 59.5q-1 26 -1 61q0 47 2 113q4 114 4 146q0 5 0.5 30t1 47.5t-0.5 54t-4.5 57t-9 49t-16.5 38t-25 16.5q-11 2 -12.5 10.5z" />
<glyph unicode="v" horiz-adv-x="440" d="M0.5 968.5q0.5 8.5 8.5 14t16 0.5q23 -13 38.5 -39.5t22.5 -53.5q8 -28 10 -68q2 -29 1 -50v-16q-1 -26 -3 -65.5t-2 -51.5q-1 -32 -4.5 -129.5t-3.5 -151.5q0 -7 0.5 -32.5t1 -35.5t1.5 -32.5t3 -35.5t5.5 -31.5t8.5 -34.5t11 -31q22 -55 71 -81q23 -12 46 -11 q28 0 57 16q59 37 59 146v14q-1 38 -1 92q0 109 3 283q0 22 -3 89q-2 40 -2 70q0 20 1 35q0 4 1 13.5t1 13.5q-11 -1 -21 -1q-39 0 -73 17q-30 17 -33 61v10q1 38 21 68q19 28 47 28q6 0 12 -1q38 -6 58 -43t22 -82v-14q45 12 72 35q8 7 16.5 3.5t10.5 -11.5t-5 -15 q-36 -36 -92 -49v-203v-23q-1 -47 -3 -127q-2 -66 -2 -111q0 -26 1 -46q1 -37 1 -67q0 -76 -7 -111q-11 -51 -49 -85q-39 -34 -87 -38q-4 0 -9 -1l-87 32q-52 42 -69 109.5t-19 160.5q-2 68 -2 108q1 10 1 19q0 42 3 127t4 127q0 6 1.5 40t2 53t-1.5 52.5t-7.5 54t-17 41.5 t-28.5 31q-8 6 -7.5 14.5zM254 885q4 -48 63 -48q15 0 33 3q0 33 -8 57q-9 27 -31.5 37t-41 -4t-15.5 -45z" />
<glyph unicode="w" horiz-adv-x="741" d="M2 975q6 16 21 16q20 -4 34 -19t21 -40.5t9.5 -42t4.5 -41.5q9 -73 9 -179q0 -61 -3 -132q-2 -66 -2 -132.5t2 -132.5q3 -104 17 -144q13 -38 37 -60q41 -35 78 -35q8 -1 14 1q44 8 75.5 42.5t45.5 83.5q0 2 2 2q-13 51 -17 141q-1 24 -1 54q0 61 3 149q4 132 4 182 q0 6 1.5 40t2 52.5t-1.5 52t-7.5 54.5t-17 42.5t-28.5 31.5q-8 6 -7.5 14t8.5 13.5t16 0.5q20 -11 34.5 -31t22 -47.5t12 -52.5t4.5 -60t-0.5 -56.5t-3 -55.5t-2.5 -43q-1 -31 -3 -89t-3 -104q0 -23 -0.5 -45.5t0.5 -42.5q0 -60 0.5 -84t7.5 -71.5t21 -81.5q24 -53 72 -79 q23 -12 47 -12q27 0 57 15q55 37 55 147v15v23q-1 58 3 161q3 87 4 146q0 26 -1 47q0 22 -3 90q-2 41 -2 71q0 20 1 35q2 6 2 21h-12q-47 0 -84 20q-35 22 -35 67q0 39 26 70q23 28 56 28q5 0 10 -1q34 -3 52 -42t20 -81q0 -14 2 -20q48 13 70 35q8 7 17 3t11.5 -12 t-4.5 -16q-38 -35 -94 -47q1 -33 1 -98.5t1 -98.5q1 -41 1 -86q0 -104 -5 -223q-1 -36 0 -63t-1 -58t-7 -57q-11 -52 -49.5 -86.5t-86.5 -37.5h-8l-88 32q-36 27 -57 80q-24 -48 -62 -79q-37 -32 -85 -37q-5 -1 -11 -1q-42 0 -84 37q-22 19 -37.5 46t-23.5 49.5t-12.5 61 t-5.5 57.5t-1 63v55v25q0 54 3 140q4 108 4 154q0 4 0.5 28t0.5 44.5t-1 50.5t-4.5 53.5t-9 46t-16 36t-24.5 15.5q-16 1 -12 17zM553 889q3 -33 30 -45q19 -8 43 -7q11 0 23 1q0 39 -8 63q-4 44 -40 44q-16 0 -38 -9q-10 -23 -10 -47z" />
<glyph unicode="x" horiz-adv-x="503" d="M2.5 16.5q-0.5 8.5 7.5 14.5q9 6 17.5 13.5t16.5 17.5l14 17.5t14 21.5t12 20t12 22.5t10 21l10 22.5t9 20q37 80 117 293v2q-5 19 -16.5 67.5t-18 74.5t-18 65t-23.5 71t-16.5 44.5t-20.5 44.5t-29 47t-35 29t-47 13q-11 0 -15.5 8t0 16.5t15.5 8.5h3q85 0 145 -121 q21 -46 40 -105.5t27 -92t27 -109.5q2 0 2 -4q5 14 33 101t40 119.5t36.5 94t48.5 107.5q6 9 14.5 9t14 -8t0.5 -17q-26 -51 -52 -115.5t-41 -109t-42 -126t-38 -114.5q38 -177 72 -279l12 -36t14 -38t20.5 -42.5t24 -32.5t31.5 -28t37 -9q15 -1 15 -18t-15 -17 q-86 5 -139 131q-39 89 -92 309v2q-4 -8 -4 -12q-73 -192 -115 -276q-3 -6 -12 -23t-13.5 -24.5t-13.5 -23t-15.5 -24.5t-16 -20.5t-19 -20.5t-20.5 -16q-8 -6 -16 0t-8.5 14.5z" />
<glyph unicode="y" horiz-adv-x="444" d="M-40 -270q5 50 30 98q59 113 196 170q-50 10 -82 47q-24 27 -36 67t-14 70v36.5v45.5q1 31 1 52v22q-6 190 -6 377q0 6 0.5 28t0.5 40.5t-0.5 44.5t-4 46t-9 39.5t-16 31t-24.5 13.5q-9 2 -11 10.5t4 16t15 6.5q19 -4 33 -17.5t21.5 -37t11 -38t6.5 -38.5q4 -34 5 -72 q1 -24 1 -54q0 -14 -0.5 -29.5t-0.5 -28.5q0 -26 1 -43q0 -70 4 -212t4 -214q0 -155 105 -174q19 -3 40 -3q68 0 146 38q-4 58 -4 86q-2 29 -6.5 101.5t-6.5 102t-4 102.5q-2 33 -2 57q0 30 2 46q1 32 4 99.5t4 107.5q1 17 1 37q0 27 -1 60q-2 57 -8 104q-3 14 12 19 q16 3 19 -11q10 -94 10 -152v-10q-1 -59 -5 -162q-3 -82 -3 -137v-26q1 -78 10 -224.5t11 -210.5l18 4q3 1 10.5 2.5t10.5 2.5q11 6 16 4q6 0 10 -4t4 -9q1 -7 -0.5 -11.5t-6.5 -7.5t-8.5 -4t-12 -3t-9.5 -2l-30 -6v-39q2 -25 2 -51q0 -22 -2 -46q-2 -52 -5 -104t-18.5 -101 t-38.5 -87t-65.5 -63.5t-100.5 -29.5q-10 -1 -20 -1q-43 0 -80 14q-46 17 -74.5 49.5t-43.5 74.5q-11 31 -11 67q0 12 1 24zM-10 -308v-5q0 -58 43 -103q38 -38 92 -48q20 -4 39 -4q33 0 65 11q74 24 104.5 80t39.5 144q10 82 10 247q-60 -11 -95.5 -19t-90 -31.5 t-99.5 -57.5q-45 -35 -75.5 -93.5t-32.5 -120.5z" />
<glyph unicode="z" horiz-adv-x="464" d="M0.5 938q-0.5 8 7.5 14q56 37 109 37h8q28 0 73.5 -14t61.5 -17q61 -8 85 -8h5q4 0 12.5 1t12.5 1q24 45 56 45h7q15 -4 17 -12q3 -9 3 -16q0 -32 -61 -45q-22 -51 -49 -129q-142 -435 -235 -695h4q22 -3 69.5 -22.5t83.5 -33.5q26 -10 53 -10q11 0 23 2q39 6 57 44 q8 16 13.5 35t8 33.5t4 38.5t2 35.5t0 39t-0.5 35.5q0 11 8 15.5t16.5 0t8.5 -15.5q0 -4 1 -28t1 -33.5t-0.5 -33.5t-2 -36.5t-4.5 -34t-8 -34.5t-12 -29t-17.5 -27.5t-23.5 -20.5q-30 -19 -68 -19q-36 0 -79 17q-5 2 -49.5 20t-67.5 23q-1 0 -13.5 3.5t-19.5 3.5 q-4 -8 -4 -13q-10 -28 -41.5 -47.5t-46.5 15.5q-10 35 11.5 53.5t58.5 23.5q48 116 120.5 342t86.5 265q7 19 31.5 94.5t41.5 116.5h-26q-32 1 -78 11.5t-78 18.5q-21 5 -47 4q-13 0 -27 -1q-42 -4 -77 -27q-8 -5 -16 0.5t-8.5 13.5z" />
<glyph unicode="{" horiz-adv-x="393" d="M21 730q0 8 8 11q159 72 129 303q-17 171 -15 293q1 31 2.5 51.5t6 54.5t11 56.5t19 49t29.5 41.5t42.5 23.5t57.5 4.5q9 -2 12 -10.5t0 -16t-12 -6.5q-26 3 -47.5 -3t-35.5 -22.5t-25 -35t-17 -47t-9.5 -51.5t-4.5 -56t-1 -53t0.5 -50t0.5 -40q0 -37 6.5 -100.5 t9.5 -109t-1 -98t-25.5 -95.5t-61.5 -74q102 -32 95 -320q-1 -20 -4.5 -68.5t-5.5 -87t-2 -90.5t8.5 -90.5t24.5 -73.5t46.5 -54t73.5 -19q15 0 15 -16.5t-15 -16.5q-41 0 -72.5 16t-50.5 38.5t-32 59t-18.5 67.5t-7 76t-0.5 71.5t3 66.5q0 7 2 28q18 277 -33 352 q-31 45 -86 24q-8 -3 -14 3t-6 14z" />
<glyph unicode="|" horiz-adv-x="118" d="M20 14q1 126 9.5 382.5t9.5 381.5q1 40 3.5 138t2.5 138t-2 136q-1 34 -7.5 110t-7 111.5t4.5 110.5q2 9 10.5 11t16 -4.5t6.5 -15.5q-8 -79 -5 -129.5t9.5 -132t5.5 -129.5q0 -131 -4 -393q-2 -68 -7 -221t-7.5 -270.5t-2.5 -223.5q-1 -15 -18 -15t-17 15z" />
<glyph unicode="}" horiz-adv-x="331" d="M22 -73.5q2 8.5 11 10.5q34 8 60 28t41 44.5t24 61t11.5 67.5t1.5 74t-3.5 72t-6.5 69.5t-5 58.5q0 6 -2.5 40.5t-3.5 49.5t-1 49.5t3 53t9 47t16.5 45t26.5 33t38 24.5q-15 16 -27 35.5t-20.5 36t-15 44t-11 42.5t-6.5 48t-3.5 45t-1.5 49v43.5t1.5 46t1.5 40.5l4 52 t4.5 71t2 76.5t-6 78t-18 65t-34.5 48.5t-55 18q-15 1 -15 17t15 16q32 -1 56.5 -15.5t39 -32t24.5 -51t14 -55.5t5 -63.5t0.5 -56.5t-1.5 -52q0 -16 -2.5 -100t-2 -100.5t2.5 -100.5q6 -82 25 -142.5t67 -100.5q6 -4 3.5 -15t-9.5 -12q-97 -14 -97 -174q-1 -54 6.5 -152 t8.5 -122q1 -42 3 -87.5t-6.5 -92t-23.5 -85.5t-48 -68t-81 -40q-9 -3 -15 3.5t-4 15z" />
<glyph unicode="&#xa8;" horiz-adv-x="364" d="M49 1094q-6 16 0 32q5 14 17.5 20.5t25.5 0.5q23 -11 23 -35q-2 -14 -19 -22q-4 -11 -14 -11q-24 0 -33 15zM258 1110q0 11 7 21.5t18 13.5q13 5 26 -8q11 0 15 -13q7 -20 -5 -34q-8 -11 -28 -11q-14 -2 -24 7t-9 24z" />
<glyph unicode="&#xa9;" horiz-adv-x="743" d="M31 673.5q-2 69.5 12 142t43 132.5t83 104t126 58q148 27 264.5 -64.5t145.5 -242.5q26 -142 -15.5 -283.5t-146.5 -230.5l-2 -2q-69 -52 -156.5 -55.5t-159.5 42.5q-136 86 -178 267q-14 63 -16 132.5zM62.5 695q-2.5 -58 9.5 -111q40 -199 153 -271q73 -46 149 -47.5 t148 47.5q87 75 128.5 192.5t29.5 237.5q-6 62 -29.5 121.5t-61.5 109t-95 79.5t-123 30q-62 0 -114 -21.5t-86.5 -59.5t-60.5 -88t-35.5 -105.5t-12 -113.5zM221 635q-14 175 39 244q27 36 75 50.5t94 -0.5t65 -59q6 -16 -9 -23q-14 -5 -20 7q-18 41 -66 48.5t-84 -17.5 q-38 -24 -51 -82q-24 -114 -4 -209q5 -24 12 -45.5t20 -44t34 -33t47 -4.5q13 4 23.5 8.5t18 13.5t12.5 14t10 18.5t7 18t7 22.5t6 22q13 40 41 55q9 5 16.5 -0.5t7.5 -13.5t-8 -15q-22 -13 -30.5 -45t-18.5 -64t-37 -46q-64 -31 -109 -17q-83 28 -98 197z" />
<glyph unicode="&#xad;" horiz-adv-x="385" d="M22 806.5q2 8.5 11 10.5q44 7 145 1t144 7q9 3 16 -4t5 -15.5t-13 -10.5q-51 -14 -143.5 -9t-145.5 0q-9 -2 -15 5t-4 15.5z" />
<glyph unicode="&#xb4;" horiz-adv-x="401" d="M166 1098q13 39 72 110q9 11 19 0.5t1 -22.5q-48 -55 -63 -96q-3 -8 -11.5 -10t-14.5 4t-3 14z" />
<glyph unicode="&#xc1;" horiz-adv-x="534" d="M2 14q11 212 14 486q-6 6 0 16v82q0 63 -6 172.5t-8 172.5t6 171q5 47 11 82.5t20 80t38.5 79t59.5 53.5q50 29 106.5 24.5t102.5 -38.5q105 -79 105 -213q1 -76 1 -162.5t-0.5 -193t-0.5 -164.5q0 -87 -2 -132q3 -5 0 -10v-201q0 -92 8 -163q0 -3 1.5 -16.5t2.5 -21 t3.5 -21.5t5.5 -23t7.5 -19t10.5 -16.5t14 -9.5q9 -4 10.5 -13t-4 -15t-14.5 -3q-10 4 -18 10t-14 15.5t-11 17t-8.5 21.5t-6 21t-5 23.5t-3 21.5t-2.5 21.5t-2 18.5q-6 69 -6 278q2 20 2 64q-56 -8 -180 -16q-140 -9 -197 -2q-4 -85 -4.5 -245.5t-3.5 -232.5 q-1 -15 -17 -15t-16 15zM35 1008q-1 -62 7.5 -222.5t2.5 -248.5v-15q19 -3 40 -4t45 -0.5t39.5 1t44.5 2.5t40 3q98 7 166 17v342v237q0 7 0.5 28t0 30.5t-1.5 28t-3.5 30.5t-8 27t-12.5 28q-36 64 -104 97.5t-129 -0.5q-43 -25 -70.5 -69.5t-38.5 -104t-14.5 -103.5 t-3.5 -104zM201 1499q15 43 71 111q6 7 13.5 4t10 -11t-2.5 -16q-49 -57 -64 -96q-3 -9 -11 -10t-14 4t-3 14z" />
<glyph unicode="&#xc4;" horiz-adv-x="522" d="M10 14q12 239 15 486q-6 6 0 16v82q0 63 -6.5 172.5t-8.5 172.5t6 171q5 47 11 82.5t20 80t38.5 79t59.5 53.5q50 29 106.5 24.5t102.5 -38.5q105 -79 105 -213q1 -76 1 -162.5t-0.5 -193t-0.5 -164.5q0 -87 -2 -132q3 -5 0 -10v-201q0 -92 8 -163q0 -3 1.5 -16.5 t2.5 -21t3.5 -21.5t5.5 -23t7.5 -19t10.5 -16.5t14 -9.5q9 -4 10.5 -13t-4 -15t-14.5 -3q-10 4 -18 10t-14 15.5t-11 17t-8.5 21.5t-6 21t-5 23.5t-3 21.5t-2.5 21.5t-2 18.5q-6 69 -6 278q2 20 2 64q-56 -8 -180 -16q-140 -9 -197 -2q-4 -85 -4.5 -245.5t-3.5 -232.5 q-1 -15 -17 -15t-16 15zM43 1008q-1 -62 7.5 -222.5t2.5 -248.5v-15q19 -3 40 -4t45 -0.5t39.5 1t44.5 2.5t40 3q98 7 166 17v342v237q0 7 0.5 28t0 30.5t-1.5 28t-3.5 30.5t-8 27t-12.5 28q-36 64 -104 97.5t-129 -0.5q-43 -25 -70.5 -69.5t-38.5 -104t-14.5 -103.5 t-3.5 -104zM121 1495q-7 17 0 33q5 14 17.5 20t25.5 0q22 -11 22 -35q-2 -14 -18 -22q-3 -10 -14 -10q-25 0 -33 14zM330 1511q0 29 24 35q14 5 27 -8q10 0 14 -12q7 -21 -4 -35q-8 -10 -29 -10q-14 -2 -23.5 6.5t-8.5 23.5z" />
<glyph unicode="&#xc9;" horiz-adv-x="493" d="M2 633q-4 90 31 147q-15 33 -18 81.5t-0.5 103.5t1.5 73q0 7 -4 59t-4 69.5t1 57.5t7.5 69t18.5 57q28 68 105.5 81t135.5 -32q146 -109 58 -389q-3 -9 -12 -10.5t-15.5 4t-3.5 14.5q11 36 18 61.5t13 59.5t5 66t-9 61q-18 63 -65.5 102.5t-108.5 32.5 q-34 -3 -57.5 -21.5t-35 -41t-17.5 -57.5t-7 -60t0 -60q1 -20 4 -60.5t4 -62.5q1 -17 -1 -95.5t3 -96.5q0 -17 6 -35q47 47 123 31q28 -5 42.5 -24.5t0.5 -45.5q-15 -26 -46.5 -40t-63.5 -11q-38 6 -60 31q-21 -41 -18 -99q1 -31 7.5 -101t6.5 -108q0 -23 -1.5 -97 t-0.5 -114q0 -39 2.5 -63t11.5 -51.5t30 -45.5t54 -30q111 -38 191 45q20 21 33.5 46t20 44t9.5 52t3 48.5t-1.5 56t-1.5 52.5q0 38 -0.5 74t11.5 74.5t36 62.5q11 11 23 -2q10 -11 0 -21q-34 -33 -41.5 -90t-0.5 -135.5t5 -103.5q-6 -165 -151 -234q-31 -16 -73.5 -13.5 t-81.5 16t-69 42.5t-35 66q-5 39 -6.5 78t-0.5 102.5t1 77.5q1 37 -1 79t-6 93.5t-5 79.5zM70 778q21 -28 55 -26q28 4 49 14q12 5 17.5 14.5t3 18t-12.5 10.5q-10 4 -32 4q-54 -6 -80 -35zM176 1499q14 41 72 111q10 11 20 -1q7 -11 0 -22q-48 -55 -63 -96q-3 -9 -11.5 -10 t-14.5 4t-3 14z" />
<glyph unicode="&#xcb;" horiz-adv-x="587" d="M70 633q-4 92 30 147q-15 33 -18 81.5t0 103.5t2 73q-1 11 -4.5 59.5t-3.5 69t0.5 58.5t7 67.5t18.5 57.5q28 68 106 81t136 -32q145 -109 57 -389q-3 -9 -11.5 -10.5t-15 4t-3.5 14.5q51 159 26 248q-18 63 -65.5 102.5t-108.5 32.5q-34 -3 -57.5 -21.5t-35 -41 t-17.5 -57.5t-7 -60t0 -60q1 -20 4.5 -60.5t4.5 -62.5q1 -17 -1 -95.5t3 -96.5q0 -17 6 -35q47 47 123 31q28 -5 42.5 -24.5t0.5 -45.5q-15 -26 -47 -40t-64 -11q-37 5 -59 31q-22 -43 -19 -99q1 -32 8 -102t7 -107q0 -23 -1.5 -97t-0.5 -114q0 -39 2.5 -63t11.5 -51.5 t30 -45.5t54 -30q110 -38 190 45q20 21 33.5 46t20 43.5t9.5 53t3.5 48t-1 56t-1.5 52.5q0 38 -0.5 74t11.5 74.5t36 62.5q4 4 9 4.5t9 -2.5t7 -7t2.5 -9t-4.5 -9q-34 -33 -41.5 -90t-0.5 -135.5t5 -103.5q-6 -164 -152 -234q-31 -16 -73 -13.5t-81.5 16t-69 42.5t-34.5 66 q-5 39 -6.5 78t-0.5 102.5t1 77.5q1 37 -1 79t-6 93.5t-5 79.5zM135 1495q-7 17 0 33q5 14 17.5 20t25.5 0q23 -12 23 -35q-2 -14 -19 -22q-3 -10 -14 -10q-25 0 -33 14zM137 778q21 -29 56 -26q28 4 49 14q12 5 17.5 14.5t3 18t-12.5 10.5q-10 4 -33 4q-54 -6 -80 -35z M344 1511q0 11 7 21.5t18 13.5q13 4 26 -8q11 0 15 -12q7 -21 -4 -35q-8 -10 -29 -10q-14 -2 -24 7t-9 23z" />
<glyph unicode="&#xcd;" horiz-adv-x="151" d="M0.5 1417.5q0.5 7.5 7.5 13t15 1.5q11 -6 20 -15.5t15 -24t10 -26.5t6.5 -31t3.5 -29.5t2.5 -29.5t1.5 -23q7 -135 0 -333q-3 -149 0 -295q2 -117 -1 -330.5t-3 -280.5q0 -15 -15.5 -15t-15.5 15q0 65 3 270t1 316q-4 188 -2 283q8 204 4 307q0 5 -0.5 36.5t-2 53 t-5.5 50.5t-13.5 48t-23.5 27q-8 5 -7.5 12.5zM14 1499q14 41 72 111q10 11 20 -1q7 -11 0 -22q-48 -55 -63 -96q-3 -9 -11.5 -10t-14.5 4t-3 14z" />
<glyph unicode="&#xd3;" horiz-adv-x="528" d="M0 1115.5q0 43.5 10 106t33 109.5q0 2 2 2q0 4 2 4q46 77 124.5 93t152.5 -39q34 -24 57 -66q2 0 2 -2q4 -4 4 -8q26 -51 39 -117q86 11 141 45q8 5 15 0t7.5 -12.5t-7.5 -13.5q-68 -42 -152 -54q1 -6 2 -18.5t2 -18.5q5 -75 5.5 -153.5t-0.5 -192.5t-1 -153v-283 q3 -40 1 -95.5t-15 -94.5q-29 -89 -103.5 -134t-160.5 -10q-75 32 -108.5 117t-35.5 182q-1 96 -4 288t-4 288q0 29 -4 108t-4 122.5zM31.5 1121.5q-0.5 -39.5 3.5 -113.5t4 -99q1 -69 3 -207.5t3 -207.5q0 -24 -1 -78t0 -88.5t5.5 -80t19 -83.5t37.5 -68q35 -46 81.5 -61.5 t101.5 4.5q97 38 114 158q8 59 9 127.5t-2 150.5t-2 127q0 277 -2 416q0 88 -7 143q-75 0 -112 37q-28 27 -34 68.5t17 74.5q16 19 37 19q-38 30 -80.5 38t-84.5 -11.5t-70 -67.5q-21 -42 -30.5 -100t-10 -97.5zM207 1499q14 41 72 111q10 11 20 -1q7 -11 0 -22 q-48 -55 -63 -96q-3 -9 -11.5 -10t-14.5 4t-3 14zM283 1282q0 -37 18 -55q31 -31 92 -31h2q-9 51 -30 94q-9 14 -11 19q-22 20 -46.5 14.5t-24.5 -41.5z" />
<glyph unicode="&#xd4;" horiz-adv-x="573" d="M23 1115.5q0 43.5 10 106t33 109.5q0 2 2 2q0 4 2 4q46 77 124 93t152 -39q34 -24 57 -66q3 0 3 -2q4 -4 4 -8q26 -51 39 -117q86 11 141 45q8 5 15 0t7 -12.5t-8 -13.5q-68 -42 -151 -54q1 -6 2 -18.5t2 -18.5q5 -75 5.5 -153.5t-0.5 -192.5t-1 -153v-283 q4 -133 -15 -190q-29 -89 -103.5 -134t-160.5 -10q-75 32 -108 116.5t-35 182.5q-1 97 -4 288.5t-4 287.5q0 29 -4 108t-4 122.5zM53.5 1121.5q-0.5 -39.5 3.5 -113.5t4 -99q1 -70 3.5 -207.5t3.5 -207.5q0 -24 -1 -78t0 -88.5t5.5 -80t19 -83.5t37.5 -68q35 -46 81 -61.5 t101 4.5q98 39 115 158q8 59 8.5 127.5t-2.5 150t-2 127.5q0 277 -2 416q0 96 -6 143q-76 0 -113 37q-28 27 -33.5 68.5t17.5 74.5q16 19 37 19q-38 30 -80.5 38t-85 -11.5t-70.5 -67.5q-21 -42 -30.5 -100t-10 -97.5zM135.5 1494q-2.5 8 3.5 15q45 47 105.5 50.5 t107.5 -41.5q7 -8 4 -17t-11 -11.5t-15 3.5q-38 37 -85 34.5t-83 -40.5q-7 -7 -15.5 -4t-11 11zM305 1282q0 -36 19 -55q31 -31 92 -31h2q-9 48 -31 94q-7 11 -10 19q-22 20 -47 14.5t-25 -41.5z" />
<glyph unicode="&#xd6;" horiz-adv-x="714" d="M80 1115.5q0 43.5 10 106t33 109.5q0 2 2 2q0 4 2 4q46 77 124 93t152 -39q35 -25 58 -66q2 0 2 -2q4 -4 4 -8q26 -51 39 -117q86 11 141 45q8 5 15 0t7.5 -12.5t-7.5 -13.5q-68 -42 -152 -54q1 -6 2 -18.5t2 -18.5q5 -75 5.5 -153.5t-0.5 -192.5t-1 -153v-283 q3 -40 1 -95.5t-15 -94.5q-29 -89 -103.5 -134t-160.5 -10q-75 32 -108.5 117t-35.5 182q-1 96 -4 288t-4 288q0 29 -4 108t-4 122.5zM111.5 1121.5q-0.5 -39.5 3.5 -113.5t4 -99q1 -70 3 -207.5t3 -207.5q0 -24 -1 -78t0 -88.5t5.5 -80t19 -83.5t37.5 -68 q35 -46 81.5 -61.5t101.5 4.5q97 38 114 158q8 59 8.5 127.5t-2.5 150t-2 127.5q0 277 -2 416q0 96 -6 143q-75 0 -112 37q-28 27 -34 68.5t17 74.5q16 19 37 19q-38 30 -80.5 38t-84.5 -11.5t-70 -67.5q-21 -42 -30.5 -100t-10 -97.5zM158 1495q-7 17 0 33q5 14 17.5 20 t25.5 0q22 -11 22 -35q-2 -14 -18 -22q-3 -10 -15 -10q-24 0 -32 14zM362 1282q0 -36 19 -55q31 -31 92 -31h2q-9 48 -31 94q-7 11 -10 19q-22 20 -47 14.5t-25 -41.5zM367 1511q0 29 24 35q14 5 27 -8q10 0 14 -12q7 -21 -4 -35q-8 -10 -29 -10q-14 -2 -23.5 6.5t-8.5 23.5 z" />
<glyph unicode="&#xda;" horiz-adv-x="585" d="M6 1407q-10 10 1 21t22 2q22 -20 35.5 -47t19.5 -63t7.5 -58.5t2.5 -63.5q0 -42 3 -174t1 -203q-8 -285 -10 -430q-5 -40 -2 -98t10.5 -111.5t38.5 -95.5t82 -51q42 -12 100 -3t89 40q56 53 63 157q4 46 5.5 101.5t1 94t-2.5 105t-2 95.5q0 63 7 211.5t5 228.5 q0 14 -1.5 57.5t-2 61.5t-3 55.5t-5.5 61t-9 54.5t-13 58q-3 9 3.5 15t14.5 4t10 -11q9 -30 15.5 -65t10 -62t6.5 -69.5t3.5 -63.5t2 -69t1.5 -64q2 -87 -5.5 -253t-6.5 -245q0 -40 4 -118v-66q0 -20 1 -58t1 -57q0 -46 2 -74t13.5 -65.5t33.5 -64.5q11 -11 -1 -23 q-10 -10 -19 0q-48 53 -58 141q-46 -137 -188 -145q-173 -12 -219 154q-14 49 -19 112.5t-4.5 105t4 122t4.5 106.5q0 19 4.5 194.5t2.5 268.5q0 14 1 82t-1 103t-16.5 83.5t-43.5 75.5zM233 1499q14 41 72 111q6 7 13.5 4t10 -11t-2.5 -16q-49 -57 -64 -96q-3 -9 -11.5 -10 t-14.5 4t-3 14z" />
<glyph unicode="&#xdc;" horiz-adv-x="686" d="M66 1407q-10 10 0.5 21t21.5 2q28 -26 43.5 -71t18.5 -76.5t4 -84.5q0 -42 3 -174t1 -203q-10 -357 -11 -430q-5 -40 -2 -98t10.5 -111.5t38.5 -95.5t82 -51q42 -12 100 -3t89 40q56 53 63 157q4 46 5.5 101.5t1 94t-2.5 105t-2 95.5q0 64 7.5 212t5.5 228 q0 12 -1.5 49.5t-2 52.5t-2 48t-4 52.5t-6 47t-8.5 51.5t-11 47q-3 9 3.5 15t15 4t10.5 -11q11 -36 18 -73.5t10.5 -85t5 -73t3 -86.5t1.5 -75q2 -87 -5.5 -253t-6.5 -245q0 -40 4 -118v-66q0 -20 1 -58t1 -57q0 -46 2 -74t13.5 -65.5t33.5 -64.5q11 -11 -1 -23 q-10 -10 -19 0q-46 51 -57 141q-46 -137 -189 -145q-173 -12 -219 154q-14 49 -19 112t-4.5 106t4.5 121.5t5 106.5q1 51 3.5 153.5t3 154t-0.5 155.5q0 15 1.5 82t-0.5 102.5t-16.5 84t-43.5 75.5zM184 1495q-7 17 0 33q5 14 17.5 20t25.5 0q23 -12 23 -35q-2 -14 -19 -22 q-3 -10 -14 -10q-25 0 -33 14zM393 1511q0 11 7 21.5t18 13.5q13 4 26 -8q11 0 15 -12q7 -21 -4 -35q-7 -10 -29 -10q-14 -2 -24 7t-9 23z" />
<glyph unicode="&#xdd;" horiz-adv-x="516" d="M1.5 1418.5q0.5 2.5 2 5.5t3.5 5t5 3.5t5.5 2t5.5 -0.5t6 -4q41 -39 58 -101.5t15 -114.5t-8.5 -129.5t-5.5 -113.5q0 -7 0.5 -43.5t1 -50.5t3.5 -46.5t8 -51t14 -41.5t22 -40q27 -35 67.5 -45t83 2.5t80 33t70.5 46.5q-2 31 -5 93.5t-5 93.5q-6 123 -6 489q0 15 15.5 15 t15.5 -15q0 -365 16 -657v-21v-8q10 -191 0 -336q-2 -24 -2 -78t-4 -95t-17 -75q-27 -72 -104 -116t-149 -19q-35 13 -60 37.5t-37.5 60t-19.5 67.5t-7 79t1 73.5t5 70.5q1 8 1 12q1 9 9 13t15 0t6 -13q-3 -41 -4.5 -73.5t-0.5 -86.5t11.5 -91.5t29 -72.5t54 -47.5t83.5 0.5 q49 13 86.5 42.5t50.5 72.5q9 32 12.5 64t5 86.5t2.5 66.5q11 158 2 331q-130 -101 -235 -75q-111 26 -133 178q-19 128 -9 284q1 10 3.5 45.5t2.5 51t0.5 47.5t-3.5 51.5t-10.5 45t-18.5 45t-29 36.5q-3 3 -4 6t-0.5 5.5zM213 1499q14 41 72 111q10 11 20 -1q7 -11 0 -22 q-48 -55 -63 -96q-3 -9 -11.5 -10t-14.5 4t-3 14z" />
<glyph unicode="&#xe1;" d="M2 407.5q1 34.5 15.5 79.5t45.5 74q56 43 129.5 39.5t135.5 -41.5q0 6 1 41.5t1 49.5t-0.5 49t-3 53.5t-8 48.5t-13 49t-19.5 39.5t-28 34.5q-51 47 -118.5 30t-82.5 -86q-15 -63 -8 -155q1 -9 -7 -13t-16.5 0t-9.5 13q-3 43 -3 74t6 75.5t27 74.5t56 42q85 27 148.5 -11 t87.5 -126q22 -82 24.5 -188t-4.5 -191q-3 -46 2 -207q1 -9 0 -46t0 -60q6 -6 2 -13v-6q4 -91 46 -102q9 -3 11 -12.5t-4.5 -16.5t-15.5 -4q-51 13 -65 82q-32 -38 -83.5 -59.5t-98.5 -18.5q-58 3 -93.5 40.5t-46.5 86.5t-8 106q1 24 -1 82t-1 92.5zM38 326q2 -47 1 -72 q-2 -40 1 -74.5t14.5 -72.5t40 -58t71.5 -16q54 5 102 31t60 71v96q-4 96 0 289q-29 22 -70.5 34.5t-83 12t-76.5 -22t-47 -61.5q-11 -34 -13 -72t0 -85zM152 1098q14 41 71 110q6 7 13.5 4t10 -10.5t-2.5 -15.5q-49 -57 -64 -96q-3 -8 -11 -10t-14 4t-3 14z" />
<glyph unicode="&#xe4;" d="M2 407.5q1 34.5 15.5 79.5t45.5 74q56 43 129.5 39.5t135.5 -41.5q0 6 1 41.5t1 49.5t-0.5 49t-3 53.5t-8 48.5t-13 49t-19.5 39.5t-28 34.5q-51 47 -118.5 30t-82.5 -86q-15 -63 -8 -155q1 -9 -7 -13t-16.5 0t-9.5 13q-3 43 -3 74t6 75.5t27 74.5t56 42q85 27 148.5 -11 t87.5 -126q22 -82 24.5 -188t-4.5 -191q-3 -46 2 -207q1 -9 0 -46t0 -60q6 -6 2 -13v-6q4 -91 46 -102q9 -3 11 -12.5t-4.5 -16.5t-15.5 -4q-51 13 -65 82q-32 -38 -83.5 -59.5t-98.5 -18.5q-58 3 -93.5 40.5t-46.5 86.5t-8 106q1 24 -1 82t-1 92.5zM38 326q2 -47 1 -72 q-2 -40 1 -74.5t14.5 -72.5t40 -58t71.5 -16q54 5 102 31t60 71v96q-4 96 0 289q-29 22 -70.5 34.5t-83 12t-76.5 -22t-47 -61.5q-11 -34 -13 -72t0 -85zM45 1094q-6 16 0 32q5 14 17.5 20.5t25.5 0.5q23 -11 23 -35q-2 -14 -19 -22q-4 -11 -14 -11q-24 0 -33 15zM254 1110 q0 11 7 21.5t18 13.5q13 5 26 -8q10 0 14 -13q7 -20 -4 -34q-8 -11 -28 -11q-14 -2 -24 7t-9 24z" />
<glyph unicode="&#xe6;" horiz-adv-x="700" d="M1 410.5q1 26.5 10.5 65t29.5 63.5q16 20 39 33t40.5 19t51 6.5t47.5 -0.5t54.5 -5.5t48.5 -5.5h4q0 65 -7 151q-3 18 -6 39q-42 222 -184 176q-27 -9 -45.5 -29.5t-26.5 -42t-11 -56t-2 -55t3 -54.5q1 -9 -7 -13t-16.5 0t-9.5 13q-12 145 33 221q26 42 84.5 52.5 t101.5 -9.5q69 -28 99 -117q25 73 76 99q45 29 93 31t91 -31q68 -61 72 -195q4 -136 -41 -193q-16 -18 -36.5 -28t-48 -11t-46 0.5t-52.5 6.5t-45 6q-6 0 -19.5 1t-19.5 1q-5 -181 -2 -232q7 -117 9 -131q20 -157 116 -156q18 0 39 5q45 12 77.5 40.5t35.5 69.5q1 20 0 59 t0 58q2 49 17 82t54 49q14 6 23 -8t-6 -20q-39 -16 -49.5 -51t-6.5 -92t1 -77q-11 -88 -101 -131q-37 -19 -86 -15.5t-82 30.5q-36 29 -51 73q-40 -66 -120 -92.5t-144 17.5q-27 20 -44 44.5t-23.5 58t-7.5 55t-1 65.5v18q0 14 -2 65t-1 77.5zM35 221q0 -159 90 -180 q68 -14 131 19.5t76 99.5q-6 40 -6 86q-3 44 -3 95.5t1.5 114.5t1.5 97q-89 8 -136 10q-72 3 -112 -38t-43 -115v-189zM348 795q10 -62 10 -211q70 -6 144 -15q95 -7 116 72q12 45 15.5 95.5t-8 106.5t-43.5 83q-56 47 -105.5 32t-83.5 -61.5t-45 -101.5z" />
<glyph unicode="&#xe9;" horiz-adv-x="417" d="M2 680q-5 190 64 262q50 51 114.5 50t110.5 -54q29 -31 41.5 -86t10.5 -106.5t-13 -96.5q-10 -39 -29.5 -64t-49.5 -38t-56 -19t-69.5 -13t-68.5 -13q-5 -2 -10 0q7 -99 2 -172q-2 -32 -2.5 -48.5t-0.5 -54t4 -59.5t13 -52t24 -46t39 -26.5t56 -8.5q45 3 85.5 27.5 t47.5 64.5q4 19 5 37.5t0 48.5t-1 37q0 115 72 147q17 7 24 -10q5 -12 -7 -18q-38 -16 -50 -54t-7 -78t2 -86t-23 -73q-43 -55 -114.5 -72t-131.5 25q-29 25 -46.5 57t-22 75.5t-5 72t3 83t4.5 70.5q2 54 -6.5 153.5t-9.5 137.5zM33.5 704.5q0.5 -43.5 2.5 -68.5t5 -62 q1 -16 2 -23q2 -6 2 -19h4q25 6 84 15t88 18q76 25 84 137q5 32 1 77t-13 86.5t-38.5 69.5t-74.5 26q-35 -2 -62 -18.5t-43 -39.5t-25.5 -59t-13 -66t-3 -73.5zM147 1098q13 39 72 110q6 7 13.5 4t10 -10.5t-2.5 -15.5q-49 -57 -64 -96q-3 -8 -11.5 -10t-14.5 4t-3 14z" />
<glyph unicode="&#xeb;" horiz-adv-x="487" d="M49 680q-5 190 64 262q50 51 114.5 50t110.5 -54q29 -31 41.5 -86t10.5 -106.5t-13 -96.5q-10 -39 -29.5 -64t-49.5 -38t-56 -19t-69.5 -13t-68.5 -13q-5 -2 -10 0q7 -99 2 -172q-2 -32 -2.5 -48.5t-0.5 -54t4 -59.5t13 -52t24 -46t39 -26.5t56 -8.5q45 3 85.5 27.5 t47.5 64.5q5 26 5 123q0 116 71 147q17 7 24 -10q5 -12 -7 -18q-38 -16 -50 -54t-7 -78t2 -86t-23 -73q-43 -55 -114.5 -72t-131.5 25q-29 25 -46 57t-22 75.5t-5.5 72.5t3.5 82.5t5 70.5q2 53 -7 152.5t-10 138.5zM80.5 704.5q0.5 -43.5 2.5 -68.5t5 -62q1 -16 2 -23 q2 -6 2 -19h4q25 6 84 15t88 18q76 25 84 137q5 32 1 77t-13 86.5t-38.5 69.5t-74.5 26q-35 -2 -62 -18.5t-43 -39.5t-25.5 -59t-13 -66t-3 -73.5zM90 1094q-6 16 0 32q5 14 17.5 20.5t25.5 0.5q23 -11 23 -35q-2 -14 -19 -22q-4 -11 -14 -11q-24 0 -33 15zM299 1110 q0 11 7 21.5t18 13.5q14 5 26 -8q11 0 15 -13q7 -20 -5 -34q-8 -11 -28 -11q-14 -2 -24 7t-9 24z" />
<glyph unicode="&#xed;" horiz-adv-x="139" d="M2 977q1 10 9 14.5t18 -0.5q67 -37 67 -141q3 -80 0 -240q-7 -206 -2 -354q0 -4 -0.5 -29t-0.5 -43t1.5 -45.5t5 -46.5t11 -36t18.5 -23q9 -7 9 -16t-9 -15t-18 0q-7 3 -12.5 8t-9.5 12t-7.5 13t-6 16t-4 15.5t-3 17t-2.5 16t-2 16t-1 13.5q-10 113 -6 285q0 62 2 142 t2 142q0 7 2.5 62t1 83.5t-14.5 65.5t-40 52q-9 6 -8 16zM23 1098q14 41 71 110q6 7 13.5 4t10 -10.5t-2.5 -15.5q-49 -57 -64 -96q-3 -8 -11 -10t-14 4t-3 14zM41 1128zM41 1128z" />
<glyph unicode="&#xf3;" d="M2 575q0 15 16.5 15t16.5 -15q0 -33 7 -124.5t7 -124.5q0 -15 -1 -43.5t-1 -51.5t2 -43q17 -129 96 -149q92 -22 136 22q52 52 62.5 131t2.5 181q-2 26 -5 78.5t-5 78.5q-133 -78 -221 -12q-100 72 -92 270q2 33 9.5 65.5t22 65.5t42 53t63.5 19q72 -1 133 -56t72 -126 q4 -33 4.5 -68.5t-1 -81.5t-1.5 -69q16 12 45 41q7 8 15 4.5t10.5 -12t-3.5 -15.5q-32 -36 -67 -59q1 -28 6 -87t6 -89q5 -37 3.5 -88.5t-7 -99.5t-27.5 -92t-59 -66q-36 -22 -83 -26.5t-91.5 13t-65.5 56.5q-35 67 -35 200q1 42 -6 152.5t-6 152.5zM55 788q-5 -197 76 -241 q90 -51 205 20q-3 49 0 95q3 38 0 78.5t-10.5 76t-30.5 67.5t-59 52q-58 33 -98 13.5t-60.5 -63t-22.5 -98.5zM150 1098q14 41 71 110q6 7 13.5 4t10 -10.5t-2.5 -15.5q-49 -57 -64 -96q-3 -8 -11 -10t-14 4t-3 14z" />
<glyph unicode="&#xf4;" d="M2 575q0 15 16.5 15t16.5 -15q0 -33 7 -124.5t7 -124.5q0 -15 -1 -43.5t-1 -51.5t2 -43q17 -129 96 -149q92 -22 136 22q52 52 62.5 131t2.5 181q-2 26 -5 78.5t-5 78.5q-133 -78 -221 -12q-100 72 -92 270q2 33 9.5 65.5t22 65.5t42 53t63.5 19q72 -1 133 -56t72 -126 q4 -33 4.5 -68.5t-1 -81.5t-1.5 -69q16 12 45 41q7 8 15 4.5t10.5 -12t-3.5 -15.5q-32 -36 -67 -59q1 -28 6 -87t6 -89q5 -37 3.5 -88.5t-7 -99.5t-27.5 -92t-59 -66q-36 -22 -83 -26.5t-91.5 13t-65.5 56.5q-35 67 -35 200q1 42 -6 152.5t-6 152.5zM55 788q-5 -197 76 -241 q90 -51 205 20q-3 49 0 95q3 38 0 78.5t-10.5 76t-30.5 67.5t-59 52q-58 33 -98 13.5t-60.5 -63t-22.5 -98.5zM80.5 1091q-2.5 8 3.5 15q45 47 105.5 50t107.5 -42q7 -8 3.5 -16.5t-11.5 -11t-15 3.5q-38 37 -85 34t-83 -41q-7 -7 -15 -3.5t-10.5 11.5z" />
<glyph unicode="&#xf6;" horiz-adv-x="468" d="M37 575q0 15 16.5 15t16.5 -15q0 -33 7 -124.5t7 -124.5q0 -15 -1 -43.5t-1 -51.5t2 -43q17 -129 96 -149q92 -21 135 22q52 52 63 131.5t3 180.5q-2 26 -5 78.5t-5 78.5q-133 -78 -221 -12q-101 72 -93 270q2 33 9.5 65.5t22.5 65.5t42.5 53t63.5 19q72 -1 132.5 -56 t71.5 -126q4 -33 4.5 -68.5t-1 -81.5t-1.5 -69q16 12 45 41q7 8 15.5 4.5t11 -12t-3.5 -15.5q-31 -34 -68 -59q1 -28 6.5 -87t6.5 -89q5 -37 3.5 -88.5t-7 -99.5t-27.5 -92t-59 -66q-36 -22 -83 -26.5t-91.5 13t-65.5 56.5q-35 67 -35 200q1 42 -6 152.5t-6 152.5zM84 1094 q-6 16 0 32q5 14 17.5 20.5t25.5 0.5q23 -11 23 -35q-2 -14 -19 -22q-4 -11 -14 -11q-24 0 -33 15zM90 788q-5 -197 76 -241q90 -51 205 20q-3 49 0 95q3 38 0 78.5t-11 76t-31 67.5t-59 52q-44 23 -77 19t-55.5 -30t-34 -61.5t-13.5 -75.5zM293 1110q0 29 24 35q14 5 27 -8 q10 0 14 -13q7 -20 -4 -34q-8 -11 -28 -11q-14 -2 -24 7t-9 24z" />
<glyph unicode="&#xfa;" horiz-adv-x="477" d="M1.5 968.5q-1.5 8.5 5 16t16.5 6.5q21 -4 35.5 -20t21.5 -46.5t9 -44.5t5 -44q8 -93 4 -330q-7 -178 2 -291q2 -26 7.5 -52t17 -55.5t29 -47t42.5 -27t58 5.5q38 14 68 51t43 80v2q-13 83 -17 225q-4 117 0 348q0 22 1.5 69.5t1 84.5t-4.5 70q-2 10 5.5 16.5t16.5 4.5 t11 -13q9 -69 9 -149.5t-4.5 -179t-4.5 -150.5q4 -215 16 -295q12 -112 34 -147q14 -21 32 -23q9 -1 13 -9.5t0 -16.5t-13 -7q-60 7 -84 113q-35 -63 -90 -96t-113 -7q-30 13 -51 36.5t-32 48t-17 62t-7.5 62.5t-2 67.5t-1.5 59.5q-3 60 1 173.5t4 146.5q0 5 0.5 30t1 47.5 t-0.5 54t-4.5 57t-9 49t-16.5 38t-25 16.5q-11 2 -12.5 10.5zM186 1098q13 39 72 110q6 7 13.5 4t10 -10.5t-2.5 -15.5q-49 -57 -64 -96q-3 -8 -11.5 -10t-14.5 4t-3 14z" />
<glyph unicode="&#xfc;" horiz-adv-x="528" d="M30.5 968.5q-1.5 8.5 4.5 16t16 6.5q21 -4 36 -20.5t22 -46t9 -45t5 -43.5q8 -93 4 -330q-7 -178 2 -291q2 -26 7.5 -52t17 -55.5t29 -47t42.5 -27t58 5.5q38 14 67.5 51t42.5 80v2q-12 76 -16 225q-4 117 0 348q0 22 1.5 69.5t1 84.5t-4.5 70q-2 10 5.5 16.5t16.5 4.5 t11 -13q9 -69 9 -149.5t-4.5 -179t-4.5 -150.5q4 -215 16 -295q0 -1 1.5 -15t2.5 -21t3 -22.5t4.5 -25.5t6 -24.5t8 -23.5t10.5 -18t13 -14t16 -6t13 -9.5t0 -16.5t-13 -7q-59 6 -83 113q-35 -63 -90 -96t-113 -7q-30 13 -51 36.5t-32 48t-17 62t-7.5 62.5t-2 67.5 t-1.5 59.5q-4 29 0 159.5t4 160.5q0 6 1 30t1 47t-0.5 54t-4 57t-9 49.5t-16.5 38t-25 16.5q-11 2 -12.5 10.5zM102 1094q-6 16 0 32q5 14 17.5 20.5t25.5 0.5q23 -11 23 -35q-2 -14 -18 -22q-4 -11 -15 -11q-24 0 -33 15zM311 1110q0 11 7 21.5t18 13.5q14 5 26 -8 q11 0 15 -13q7 -20 -4 -34q-8 -11 -29 -11q-14 -2 -24 7t-9 24z" />
<glyph unicode="&#xfd;" horiz-adv-x="444" d="M-40 -269.5q5 49.5 30 97.5q59 113 196 170q-50 10 -82 47q-24 27 -36 67t-13.5 70.5t0 82t0.5 73.5q-6 190 -6 377q0 6 0.5 28t0.5 40.5t-0.5 44.5t-4 46t-9 39.5t-16 31t-24.5 13.5q-9 2 -11 10.5t4 16t15 6.5q19 -4 33 -17.5t21.5 -37t11 -38t6.5 -38.5q4 -34 5 -71.5 t0.5 -84t0.5 -71.5q0 -70 4 -212t4 -214q0 -155 105 -174q84 -15 186 35q-4 58 -4 86q-2 29 -6.5 101.5t-6.5 102t-4.5 102.5t0.5 103q1 32 4 99.5t4.5 107.5t-0.5 97t-8 104q-3 14 12 19q16 3 19 -11q11 -103 10 -162t-5 -162t-3 -163q1 -78 10 -224.5t11 -210.5l18 4 q3 1 10.5 2.5t10.5 2.5q11 6 16 4q6 0 10 -4t4 -9q1 -7 -0.5 -11.5t-6.5 -7.5t-8.5 -4t-12 -3t-9.5 -2l-30 -6v-39q3 -45 0.5 -97t-5.5 -104t-18.5 -101t-38.5 -87t-65.5 -63.5t-100.5 -29.5q-54 -4 -100 13t-74.5 49.5t-43.5 74.5t-10 91.5zM-10 -307.5q-2 -61.5 43 -108.5 q38 -38 92 -48.5t104 7.5q74 24 104.5 80t39.5 144q10 82 10 247q-60 -11 -95.5 -19t-90 -31.5t-99.5 -57.5q-45 -35 -75.5 -93.5t-32.5 -120zM172 1098q13 39 72 110q9 11 19 0.5t1 -22.5q-48 -55 -63 -96q-3 -8 -11.5 -10t-14.5 4t-3 14z" />
<glyph unicode="&#xff;" horiz-adv-x="503" d="M-10.5 -293.5q-3.5 60.5 30.5 121.5q59 112 197 170q-50 10 -82 47q-24 27 -36 67t-13.5 70.5t0 82t0.5 73.5q-6 190 -6 377q0 6 0.5 28t0.5 40.5t-0.5 44.5t-4 46t-9 39.5t-16 31t-24.5 13.5q-9 2 -11 10.5t4 16t15 6.5q19 -4 33 -17.5t21.5 -37t10.5 -37.5t6 -39 q4 -34 5 -71t1 -84.5t1 -71.5q0 -70 4 -212t4 -214q0 -156 104 -174q85 -15 187 35q-4 58 -4 86q-2 29 -6.5 101.5t-6.5 102t-4.5 102.5t0.5 103q1 32 4 99.5t4.5 107.5t-0.5 97t-8 104q-3 14 12 19q16 3 19 -11q11 -103 10 -162t-5 -162t-3 -163q1 -78 9.5 -225t10.5 -210 l19 4q3 1 10 2.5t10 2.5q12 6 17 4q6 0 10 -4t4 -9q1 -7 -0.5 -11.5t-6.5 -7.5t-8.5 -4t-12 -3t-9.5 -2q-5 -1 -15.5 -3t-15.5 -3v-39q3 -45 0.5 -97l-5 -104t-18 -101t-38.5 -87t-65.5 -63.5t-100.5 -29.5q-68 -5 -121.5 22.5t-79 74.5t-29 107.5zM20 -307.5 q-2 -61.5 43 -108.5q38 -38 92.5 -48.5t104.5 7.5q73 24 103.5 79.5t39.5 144.5q11 90 11 247q-60 -11 -95.5 -19t-90 -31.5t-99.5 -57.5q-45 -36 -76 -94t-33 -119.5zM94 1094q-6 16 0 32q5 14 17.5 20.5t25.5 0.5q23 -11 23 -35q-2 -14 -19 -22q-4 -11 -14 -11 q-24 0 -33 15zM303 1110q0 11 7 21.5t18 13.5q13 5 26 -8q11 0 15 -13q7 -20 -4 -34q-8 -11 -29 -11q-14 -2 -24 7t-9 24z" />
<glyph unicode="&#x178;" horiz-adv-x="591" d="M54.5 1418.5q0.5 2.5 2 5.5t3.5 5t5 3.5t5.5 2t5.5 -0.5t6 -4q41 -39 58 -101.5t15 -114.5t-8.5 -129.5t-5.5 -113.5q0 -7 0.5 -43.5t1 -50.5t3.5 -46.5t8 -51t14 -41.5t22 -40q27 -35 67.5 -45t83.5 2.5t81 33t70 46.5q-2 30 -5.5 92.5t-5.5 94.5q-6 123 -6 489 q0 15 15.5 15t15.5 -15q0 -365 16 -657v-21v-8q10 -191 0 -336q-2 -25 -1.5 -78t-3.5 -94.5t-17 -75.5q-27 -72 -104.5 -116t-149.5 -19q-35 13 -60 37.5t-37.5 60t-19.5 67.5t-7 79t1 73.5t5 70.5q1 8 1 12q1 9 9 13t15.5 0t6.5 -13q-4 -42 -5 -74t0 -86t11.5 -91 t28.5 -72.5t53.5 -48t83.5 0.5q49 13 86.5 42.5t50.5 72.5q9 32 12.5 64t5 86.5t2.5 66.5q12 166 3 331q-130 -101 -236 -75q-111 26 -133 178q-18 123 -8 284q0 7 3 45t3 51.5v47t-4 52t-10 44.5t-18.5 45.5t-29.5 36.5q-3 3 -4 6t-0.5 5.5zM158 1495q-7 17 0 33 q5 14 17.5 20t25.5 0q22 -11 22 -35q-2 -14 -18 -22q-3 -10 -15 -10q-24 0 -32 14zM367 1511q0 29 24 35q14 5 27 -8q10 0 14 -12q7 -21 -4 -35q-8 -10 -29 -10q-14 -2 -23.5 6.5t-8.5 23.5z" />
<glyph unicode="&#x2000;" horiz-adv-x="813" />
<glyph unicode="&#x2001;" horiz-adv-x="1626" />
<glyph unicode="&#x2002;" horiz-adv-x="813" />
<glyph unicode="&#x2003;" horiz-adv-x="1626" />
<glyph unicode="&#x2004;" horiz-adv-x="542" />
<glyph unicode="&#x2005;" horiz-adv-x="406" />
<glyph unicode="&#x2006;" horiz-adv-x="271" />
<glyph unicode="&#x2007;" horiz-adv-x="271" />
<glyph unicode="&#x2008;" horiz-adv-x="203" />
<glyph unicode="&#x2009;" horiz-adv-x="325" />
<glyph unicode="&#x200a;" horiz-adv-x="90" />
<glyph unicode="&#x2010;" horiz-adv-x="385" d="M22 806.5q2 8.5 11 10.5q44 7 145 1t144 7q9 3 16 -4t5 -15.5t-13 -10.5q-51 -14 -143.5 -9t-145.5 0q-9 -2 -15 5t-4 15.5z" />
<glyph unicode="&#x2011;" horiz-adv-x="385" d="M22 806.5q2 8.5 11 10.5q44 7 145 1t144 7q9 3 16 -4t5 -15.5t-13 -10.5q-51 -14 -143.5 -9t-145.5 0q-9 -2 -15 5t-4 15.5z" />
<glyph unicode="&#x2012;" horiz-adv-x="385" d="M22 806.5q2 8.5 11 10.5q44 7 145 1t144 7q9 3 16 -4t5 -15.5t-13 -10.5q-51 -14 -143.5 -9t-145.5 0q-9 -2 -15 5t-4 15.5z" />
<glyph unicode="&#x2013;" horiz-adv-x="1085" d="M22.5 806.5q6.5 8.5 35.5 10.5q140 7 461 1t458 7q28 3 50.5 -4t16 -15.5t-41.5 -10.5q-162 -14 -456 -9t-463 0q-29 -2 -48 5t-12.5 15.5z" />
<glyph unicode="&#x2014;" horiz-adv-x="2109" d="M24 806.5q13 8.5 70 10.5q280 7 922.5 1t916.5 7q57 3 101.5 -4t31.5 -15.5t-83 -10.5q-324 -14 -912.5 -9t-925.5 0q-57 -2 -95.5 5t-25.5 15.5z" />
<glyph unicode="&#x2018;" horiz-adv-x="116" d="M16 1532q0 15 16.5 15t16.5 -15q3 -75 53 -160q6 -8 1 -16t-13.5 -8t-15.5 8q-55 89 -58 176z" />
<glyph unicode="&#x2019;" horiz-adv-x="102" d="M11.5 1327q-4.5 7 0.5 16q17 25 28.5 53.5t15.5 62.5t-11 59q-5 9 0.5 16.5t13.5 7.5t15 -8q23 -52 11.5 -107t-44.5 -100q-6 -9 -15.5 -8t-14 8z" />
<glyph unicode="&#x201a;" horiz-adv-x="112" d="M7.5 -71.5q-4.5 7.5 0.5 16.5q44 59 52 88q6 26 -1 49q-3 9 4 15t16.5 4t12.5 -11q4 -15 4.5 -29.5t-3.5 -29.5t-8.5 -27t-14 -27.5t-16 -25t-17.5 -25.5q-6 -8 -15.5 -6.5t-14 9z" />
<glyph unicode="&#x201c;" horiz-adv-x="215" d="M6 1538q0 11 8 15.5t16.5 0t8.5 -15.5q-4 -113 41 -176q5 -8 -0.5 -15t-14 -7.5t-14.5 6.5q-52 75 -45 192zM115 1538q0 11 8 15.5t16 0t8 -15.5q-4 -117 54 -172q8 -7 4.5 -15.5t-12 -11t-15.5 3.5q-71 65 -63 195z" />
<glyph unicode="&#x201d;" horiz-adv-x="210" d="M8 1343q17 25 28.5 53.5t15.5 62.5t-11 59q-6 8 -0.5 16t13.5 8t14 -8q19 -31 17 -69.5t-15 -74t-35 -63.5q-10 -14 -24 -5q-13 8 -3 21zM123 1339q64 103 27 185q-4 9 2.5 15t16 5t13.5 -10q18 -54 9 -109t-39 -102q-9 -14 -24 -4q-14 8 -5 20z" />
<glyph unicode="&#x201e;" horiz-adv-x="198" d="M12 -90q50 98 33 166q-3 9 3.5 15t15.5 4t12 -11q20 -74 -35 -190q-5 -8 -13 -8t-14 8t-2 16zM109 -86q55 98 34 168q-6 14 9 19q17 3 22 -11q27 -78 -37 -192q-6 -8 -14 -8t-13.5 8t-0.5 16z" />
<glyph unicode="&#x202f;" horiz-adv-x="325" />
<glyph unicode="&#x205f;" horiz-adv-x="406" />
<glyph unicode="&#x25fc;" horiz-adv-x="993" d="M0 0v993h993v-993h-993z" />
</font>
</defs>
</svg>
